<?xml version="1.0" encoding="UTF-8"?>
<?xml version="1.0" encoding="UTF-8"?>
<svg id="mask" xmlns="http://www.w3.org/2000/svg" viewBox="0 0 867.97 167.24">
  <defs>
    <style>
      .cls-1 {
        fill: #000;
        stroke: #fff;
        stroke-linecap: round;
        stroke-linejoin: round;
        stroke-width: 17px;
      }
    </style>
  </defs>
  <line class="cls-1" x1="8.5" y1="8.5" x2="8.5" y2="124.09"/>
  <line class="cls-1" x1="36.6" y1="46.57" x2="36.6" y2="158.74"/>
  <path class="cls-1" d="M41.7,83.45s62.77-83.75,55.23,0-55.23,30.03-55.23,30.03"/>
  <path class="cls-1" d="M116.1,93.05s14.76-91.74,66.48-26.13c6.72,91.82-66.48,26.13-66.48,26.13Z"/>
  <path class="cls-1" d="M207.21,45.55s9.43,179.18,50.9,1.02v73.14"/>
  <line class="cls-1" x1="283.5" y1="10.01" x2="283.5" y2="120.5"/>
  <path class="cls-1" d="M309.01,46.57s8.48,166.83,52.78,5.65c1.5-15.96,0,67.49,0,67.49"/>
  <line class="cls-1" x1="422.12" y1="11.19" x2="422.12" y2="120.5"/>
  <path class="cls-1" d="M430.97,35.93s67.99-76.46,75.04,38.25-75.04,47.51-75.04,47.51"/>
  <path class="cls-1" d="M532.64,85.51l60.95-14.79c-5.27-14.61-18.97-23.15-42.62-24.55-21.09,11.29-25.24,32.33-24.23,56.34,36.48,25.3,58.72,21.38,65.67-13.94"/>
  <path class="cls-1" d="M659.65,56.93c-5.66-32.19-30.39-26.86-46.15,0,1.89,32.82,32.35,9.49,46.15,40.02.08,31.91-31.35,44.64-47.88,4.11"/>
  <line class="cls-1" x1="685.45" y1="46.57" x2="685.45" y2="122.09"/>
  <line class="cls-1" x1="680.03" y1="19.37" x2="690.87" y2="30.09"/>
  <path class="cls-1" d="M764.4,49.85l24.96-7.68c-34.74-1.8-65.3,1.03-80.24,21.12l5.28,46.42,33.6,12.3,31.7-25.07-5.27-37.68,10.58,51.39-67.33,20.08,3.76,17.36,46.04-21.57,19.8-3.47.24,17.68-13.52,5.76-21.99-5.24"/>
  <path class="cls-1" d="M807.63,43.87v78.22c7.98-58.79,21.57-90.74,45.17-74.79l6.67,68.52"/>
</svg>