<?xml version="1.0" encoding="UTF-8"?>
<svg id="_レイヤー_2" data-name="レイヤー 2" xmlns="http://www.w3.org/2000/svg" xmlns:xlink="http://www.w3.org/1999/xlink" viewBox="0 0 67.85 77.76">
  <defs>
    <style>
      .cls-1 {
        fill: url(#_名称未設定グラデーション_12);
        stroke-width: 0px;
      }
    </style>
    <linearGradient id="_名称未設定グラデーション_12" data-name="名称未設定グラデーション 12" x1="-799.97" y1="41.6" x2="67.85" y2="41.6" gradientTransform="translate(0 80.48) scale(1 -1)" gradientUnits="userSpaceOnUse">
      <stop offset="0" stop-color="#804e00"/>
      <stop offset=".06" stop-color="#855506"/>
      <stop offset=".15" stop-color="#946817"/>
      <stop offset=".25" stop-color="#ac8833"/>
      <stop offset=".33" stop-color="#c2a54c"/>
      <stop offset=".52" stop-color="#b0923f"/>
      <stop offset=".57" stop-color="#a17d2b"/>
      <stop offset=".65" stop-color="#8f6313"/>
      <stop offset=".72" stop-color="#835305"/>
      <stop offset=".77" stop-color="#804e00"/>
      <stop offset=".82" stop-color="#855506"/>
      <stop offset=".89" stop-color="#926818"/>
      <stop offset=".98" stop-color="#a98836"/>
      <stop offset="1" stop-color="#b0923f"/>
    </linearGradient>
  </defs>
  <g id="_レイヤー_2-2" data-name=" レイヤー 2">
    <g id="_レイヤー_1-2" data-name=" レイヤー 1-2">
      <path class="cls-1" d="M0,.64h14.88l-.16,41.44c.64-4.91,1.52-9.33,2.64-13.28,1.12-3.94,2.37-7.46,3.76-10.56,1.06-2.24,2.29-4.43,3.68-6.56,1.38-2.13,3.01-4.08,4.88-5.84s3.89-3.17,6.08-4.24c2.19-1.06,4.61-1.6,7.28-1.6,4.37,0,7.92.91,10.64,2.72,2.72,1.82,4.85,4.16,6.4,7.04,1.54,2.88,2.61,6.13,3.2,9.76.58,3.63.88,7.26.88,10.88v33.6c0,2.67.13,4.8.4,6.4s.61,2.85,1.04,3.76.85,1.5,1.28,1.76c.42.27.75.4.96.4v1.44h-18.56v-1.44c.21,0,.53-.13.96-.4.42-.26.83-.85,1.2-1.76s.72-2.16,1.04-3.76.48-3.73.48-6.4V30.4c0-1.92-.11-4.24-.32-6.96s-.66-5.38-1.35-8c-.69-2.61-1.7-4.98-3.03-7.12-1.33-2.13-3.11-3.57-5.34-4.32-2.23-.75-4.41-.72-6.54.08s-4.06,2-5.82,3.6c-1.75,1.6-3.32,3.42-4.7,5.44-1.38,2.03-2.49,3.95-3.34,5.76-2.34,5.12-4.2,11.39-5.58,18.8-1.38,7.42-2.07,16.19-2.07,26.32,0,2.67.13,4.8.4,6.4.26,1.6.61,2.85,1.04,3.76.42.91.85,1.5,1.28,1.76.43.27.75.4.96.4v1.44H0v-1.44c.21,0,.53-.13.96-.4.42-.26.83-.85,1.2-1.76s.72-2.16,1.04-3.76.48-3.73.48-6.4V14.4c0-2.56-.16-4.67-.48-6.32s-.67-2.91-1.04-3.76c-.38-.85-.78-1.44-1.2-1.76-.43-.32-.75-.48-.96-.48V.64h0Z"/>
    </g>
  </g>
</svg>