<?xml version="1.0" encoding="UTF-8"?>
<svg id="_レイヤー_1" data-name="レイヤー 1" xmlns="http://www.w3.org/2000/svg" version="1.1" viewBox="0 0 88 88">
  <defs>
    <style>
      .cls-1 {
        fill: #8c6332;
        stroke-width: 0px;
      }
    </style>
  </defs>
  <g id="G.Design">
    <path class="cls-1" d="M50,85h-4v-8h-14v8h-4c-.6,0-1,.4-1,1s.4,1,1,1h22c.6,0,1-.4,1-1s-.4-1-1-1Z"/>
    <path class="cls-1" d="M2,68c0,3.9,3.1,7,7,7h53v-8H2v1ZM36,70h6c.6,0,1,.4,1,1s-.4,1-1,1h-6c-.6,0-1-.4-1-1s.4-1,1-1Z"/>
    <path class="cls-1" d="M32.9,39l-.9,2.7c-.1.3,0,.6.1.9.2.3.5.4.8.4h12c.3,0,.6-.2.8-.4.2-.3.2-.6.1-.9l-.9-2.7h-12.1Z"/>
    <path class="cls-1" d="M75,69c.6,0,1-.4,1-1v-2c0-.6-.4-1-1-1s-1,.4-1,1v2c0,.6.4,1,1,1Z"/>
    <path class="cls-1" d="M78,55h-2v8.2c1.2.4,2,1.5,2,2.8h8v-3c0-4.4-3.6-8-8-8Z"/>
    <path class="cls-1" d="M76,70.8v2.2c0,.6-.4,1-1,1s-1-.4-1-1v-2.2c-1.2-.4-2-1.5-2-2.8h-8v8c0,6.1,4.9,11,11,11s11-4.9,11-11v-8h-8c0,1.3-.8,2.4-2,2.8Z"/>
    <rect class="cls-1" x="31" y="31" width="16" height="6" rx="1" ry="1"/>
    <circle class="cls-1" cx="39" cy="23" r="1"/>
    <path class="cls-1" d="M19,7c1.3,0,2.4-.8,2.8-2h7.1c-3.1,1.8-5.5,4.6-6.6,8h-1.3c-.6,0-1,.4-1,1v4c0,.6.4,1,1,1h4c.6,0,1-.4,1-1v-4c0-.6-.4-1-1-1h-.6c1.9-4.7,6.5-7.8,11.6-8v1c0,.6.4,1,1,1h4c.6,0,1-.4,1-1v-1c5.1.1,9.6,3.3,11.6,8h-.6c-.6,0-1,.4-1,1v4c0,.6.4,1,1,1h4c.6,0,1-.4,1-1v-4c0-.6-.4-1-1-1h-1.3c-1.2-3.4-3.5-6.2-6.6-8h7.1c.6,1.6,2.3,2.4,3.8,1.8,1.6-.6,2.4-2.3,1.8-3.8-.6-1.6-2.3-2.4-3.8-1.8-.9.3-1.5,1-1.8,1.8h-14.2v-1c0-.6-.4-1-1-1h-4c-.6,0-1,.4-1,1v1h-14.2c-.6-1.6-2.3-2.4-3.8-1.8-1.6.6-2.4,2.3-1.8,3.8.4,1.2,1.6,2,2.8,2Z"/>
    <path class="cls-1" d="M47.9,24.5l-7.9-14.8v10.4c1.6.6,2.4,2.3,1.8,3.8-.6,1.6-2.3,2.4-3.8,1.8s-2.4-2.3-1.8-3.8c.3-.9,1-1.5,1.8-1.8v-10.4l-7.9,14.8c-.2.3-.2.7,0,1l2.4,3.4h12.7l2.4-3.4c.2-.3.2-.7,0-1Z"/>
    <path class="cls-1" d="M70,53.2v-2.2h-29c-1.7,0-3-1.3-3-3v-3h-5c-1.7,0-3-1.4-3-3,0-.3,0-.6.1-.9l.8-2.3c-1.1-.4-1.9-1.5-1.9-2.8v-4c0-1.1.6-2,1.5-2.6l-1.7-2.4H9c-.6,0-1,.4-1,1v31h54.8c1.3-3,4-5.1,7.2-5.8Z"/>
    <path class="cls-1" d="M6,60V28c0-1.7,1.3-3,3-3h19c0-.5.1-1,.4-1.4l1.4-2.6H9c-3.9,0-7,3.1-7,7v37h60v-2c0-.7,0-1.3.2-2H7c-.6,0-1-.4-1-1Z"/>
    <path class="cls-1" d="M64,63v3h8c0-1.3.8-2.4,2-2.8v-8.2h-2c-4.4,0-8,3.6-8,8Z"/>
    <path class="cls-1" d="M49.7,23.6c.2.4.4.9.4,1.4h19c1.7,0,3,1.3,3,3v17h4v-17c0-3.9-3.1-7-7-7h-20.7l1.4,2.6Z"/>
    <path class="cls-1" d="M75,47h-5v-19c0-.6-.4-1-1-1h-19.8l-1.7,2.4c.9.5,1.5,1.5,1.5,2.6v4c0,1.2-.8,2.3-1.9,2.8l.8,2.3c.5,1.6-.3,3.3-1.9,3.8-.3,0-.6.1-.9.1h-5v3c0,.6.4,1,1,1h33v6h2v-7c0-.6-.4-1-1-1Z"/>
  </g>
</svg>