<?xml version="1.0" encoding="UTF-8"?>
<svg id="Layer_2" data-name="Layer 2" xmlns="http://www.w3.org/2000/svg" version="1.1" viewBox="0 0 35 35">
  <defs>
    <style>
      .cls-1 {
        fill: #8c6332;
        stroke-width: 0px;
      }
    </style>
  </defs>
  <path class="cls-1" d="M22.9,13.4h-10.8c-3.6-.1-6.5-3.2-6.3-6.8.1-3.4,2.9-6.2,6.3-6.3h10.8c3.6.1,6.5,3.2,6.3,6.8-.1,3.4-2.9,6.2-6.3,6.3ZM12.1,2.8c-2.3.1-4,2-3.9,4.3.1,2.1,1.8,3.8,3.9,3.9h10.8c2.3-.1,4-2,3.9-4.3-.1-2.1-1.8-3.8-3.9-3.9h-10.8Z"/>
  <path class="cls-1" d="M17.4,24.1h-5.3c-3.6,0-6.6-2.9-6.6-6.6s2.9-6.6,6.6-6.6,1.2.6,1.2,1.2-.6,1.2-1.2,1.2c-2.3,0-4.1,1.8-4.1,4.1s1.8,4.1,4.1,4.1h4.1v-9.4c0-.7.6-1.2,1.2-1.2s1.2.6,1.2,1.2v10.7c0,.7-.6,1.2-1.2,1.2Z"/>
  <path class="cls-1" d="M12.2,34.8c-3.6.1-6.7-2.7-6.8-6.3-.1-3.6,2.7-6.7,6.3-6.8.2,0,.3,0,.5,0,.7,0,1.2.6,1.2,1.2s-.6,1.2-1.2,1.2c-2.3,0-4.1,1.8-4.1,4.1,0,2.3,1.8,4.1,4.1,4.1s4.1-1.8,4.1-4.1c0,0,0,0,0,0v-5.3c0-.7.6-1.2,1.2-1.2s1.2.6,1.2,1.2v5.3c0,3.6-2.9,6.6-6.6,6.6Z"/>
  <path class="cls-1" d="M22.8,24.2c-3.7,0-6.7-3-6.7-6.7s3-6.7,6.7-6.7,6.7,3,6.7,6.7-3,6.7-6.7,6.7h0ZM22.8,13.4c-2.3,0-4.2,1.9-4.2,4.2,0,2.3,1.9,4.2,4.2,4.2,2.3,0,4.2-1.9,4.2-4.2,0,0,0,0,0,0,0-2.3-1.9-4.2-4.2-4.2Z"/>
  <path class="cls-1" d="M17.4,13.4h0c-.7,0-1.2-.6-1.2-1.3h0s0-10.7,0-10.7c0-.7.6-1.2,1.2-1.2h0c.7,0,1.2.6,1.2,1.3h0s0,10.7,0,10.7c0,.7-.6,1.2-1.2,1.2Z"/>
</svg>