<?xml version="1.0" encoding="UTF-8"?>
<svg id="_レイヤー_1" data-name="レイヤー 1" xmlns="http://www.w3.org/2000/svg" version="1.1" viewBox="0 0 2500 2500">
  <defs>
    <style>
      .cls-1 {
        fill: #8c6332;
      }

      .cls-1, .cls-2 {
        stroke-width: 0px;
      }

      .cls-2 {
        fill: #fff;
      }
    </style>
  </defs>
  <path class="cls-1" d="M0,83.7v110.4c46.2,0,83.7,37.5,83.7,83.7S46.2,361.5,0,361.5v110.4c46.2,0,83.7,37.6,83.7,83.7S46.2,639.2,0,639.2v110.4c46.2,0,83.7,37.6,83.7,83.7S46.2,917.1,0,917.1v110.4c46.2,0,83.7,37.5,83.7,83.7s-37.6,83.7-83.7,83.7v110.4c46.2,0,83.7,37.5,83.7,83.7s-37.6,83.7-83.7,83.7v110.4c46.2,0,83.7,37.5,83.7,83.7s-37.6,83.7-83.7,83.7v110.4c46.2,0,83.7,37.5,83.7,83.7s-37.6,83.7-83.7,83.7v110.4c46.2,0,83.7,37.5,83.7,83.7s-37.6,83.7-83.7,83.7v110.4c22.2,0,43.5,8.9,59.2,24.5,15.6,15.7,24.4,37,24.5,59.2h110.4c0-46.2,37.6-83.7,83.7-83.7s83.7,37.5,83.7,83.7h110.4c0-46.2,37.5-83.7,83.7-83.7s83.7,37.5,83.7,83.7h110.4c0-46.2,37.6-83.7,83.7-83.7s83.7,37.5,83.7,83.7h110.4c0-46.2,37.6-83.7,83.7-83.7s83.7,37.5,83.7,83.7h110.4c0-46.2,37.6-83.7,83.7-83.7s83.7,37.5,83.7,83.7h110.4c0-46.2,37.6-83.7,83.7-83.7s83.7,37.5,83.7,83.7h110.4c0-46.2,37.6-83.7,83.7-83.7s83.7,37.5,83.7,83.7h110.4c0-46.2,37.6-83.7,83.7-83.7s83.7,37.5,83.7,83.7h110.4c0-22,8.9-43.6,24.5-59.2,15.7-15.6,37-24.5,59.2-24.5v-110.4c-46.2,0-83.7-37.6-83.7-83.7s37.6-83.7,83.7-83.7v-110.4c-46.2,0-83.7-37.5-83.7-83.7s37.6-83.7,83.7-83.7v-110.4c-46.2,0-83.7-37.6-83.7-83.7s37.6-83.7,83.7-83.7v-110.4c-46.2,0-83.7-37.6-83.7-83.7s37.6-83.7,83.7-83.7v-110.4c-46.2,0-83.7-37.6-83.7-83.7s37.6-83.7,83.7-83.7v-110.4c-46.2,0-83.7-37.5-83.7-83.7s37.6-83.7,83.7-83.7v-110.3c-46.2,0-83.7-37.6-83.7-83.7s37.6-83.7,83.7-83.7v-110.4c-46.2,0-83.7-37.6-83.7-83.7s37.6-83.7,83.7-83.7v-110.4c-22,0-43.6-8.9-59.2-24.5-15.7-15.7-24.5-37-24.5-59.2h-110.4c0,46.2-37.6,83.7-83.7,83.7S2138.5,46.2,2138.5,0h-110.4c0,46.2-37.6,83.7-83.7,83.7S1860.7,46.2,1860.7,0h-110.4c0,46.2-37.6,83.7-83.7,83.7S1583,46.2,1583,0h-110.4c0,46.2-37.6,83.7-83.7,83.7S1305.2,46.2,1305.2,0h-110.4c0,46.2-37.6,83.7-83.7,83.7S1027.4,46.2,1027.4,0h-110.4c0,46.2-37.6,83.7-83.7,83.7S749.7,46.2,749.7,0h-110.4c0,46.2-37.6,83.7-83.7,83.7S471.9,46.2,471.9,0h-110.4c0,46.2-37.5,83.7-83.7,83.7S194.1,46.2,194.1,0h-110.4c0,22-8.9,43.6-24.5,59.2C43.5,74.8,22.2,83.6,0,83.7h0Z"/>
  <path class="cls-2" d="M2129.7,1000.3H882.2l65.1-304.6h760.3l69.7-327.8H684.5l-344.1,1623h330.2l151.1-709.2h792l-688.2,681.3,120.9,213.9c55.8-37.2,146.5-41.9,209.3-41.9,111.6,0,220.9,37.2,334.8,37.2s211.4-7,385.8-90.7l60.9-286c-118.6,48.8-294.1,95.3-446.7,95.3s-120.9-13.9-181.3-23.2l667.1-648.7,53.5-218.6Z"/>
</svg>