<?xml version="1.0" encoding="UTF-8"?>
<svg id="Layer_1" data-name="Layer 1" xmlns="http://www.w3.org/2000/svg" xmlns:xlink="http://www.w3.org/1999/xlink" version="1.1" viewBox="0 0 200 200">
  <defs>
    <style>
      .cls-1 {
        fill: url(#_名称未設定グラデーション_187);
      }

      .cls-1, .cls-2, .cls-3, .cls-4, .cls-5, .cls-6, .cls-7, .cls-8, .cls-9, .cls-10, .cls-11, .cls-12, .cls-13, .cls-14, .cls-15, .cls-16, .cls-17, .cls-18, .cls-19, .cls-20, .cls-21, .cls-22, .cls-23, .cls-24, .cls-25, .cls-26, .cls-27, .cls-28, .cls-29, .cls-30, .cls-31, .cls-32, .cls-33, .cls-34, .cls-35, .cls-36, .cls-37, .cls-38, .cls-39, .cls-40, .cls-41, .cls-42, .cls-43, .cls-44, .cls-45, .cls-46, .cls-47, .cls-48, .cls-49, .cls-50, .cls-51, .cls-52, .cls-53, .cls-54, .cls-55, .cls-56, .cls-57, .cls-58, .cls-59, .cls-60, .cls-61, .cls-62, .cls-63, .cls-64, .cls-65, .cls-66, .cls-67, .cls-68, .cls-69, .cls-70, .cls-71, .cls-72, .cls-73, .cls-74, .cls-75, .cls-76, .cls-77, .cls-78, .cls-79, .cls-80, .cls-81, .cls-82, .cls-83, .cls-84, .cls-85, .cls-86, .cls-87, .cls-88, .cls-89, .cls-90, .cls-91, .cls-92, .cls-93, .cls-94, .cls-95, .cls-96, .cls-97, .cls-98, .cls-99, .cls-100, .cls-101, .cls-102, .cls-103, .cls-104, .cls-105, .cls-106, .cls-107, .cls-108, .cls-109, .cls-110, .cls-111, .cls-112, .cls-113, .cls-114, .cls-115, .cls-116, .cls-117, .cls-118, .cls-119 {
        stroke-width: 0px;
      }

      .cls-2 {
        fill: url(#_名称未設定グラデーション_187-99);
      }

      .cls-3 {
        fill: url(#_名称未設定グラデーション_187-93);
      }

      .cls-4 {
        fill: url(#_名称未設定グラデーション_187-92);
      }

      .cls-5 {
        fill: url(#_名称未設定グラデーション_187-96);
      }

      .cls-6 {
        fill: url(#_名称未設定グラデーション_187-90);
      }

      .cls-7 {
        fill: url(#_名称未設定グラデーション_187-91);
      }

      .cls-8 {
        fill: url(#_名称未設定グラデーション_187-80);
      }

      .cls-9 {
        fill: url(#_名称未設定グラデーション_187-89);
      }

      .cls-10 {
        fill: url(#_名称未設定グラデーション_187-83);
      }

      .cls-11 {
        fill: url(#_名称未設定グラデーション_187-86);
      }

      .cls-12 {
        fill: url(#_名称未設定グラデーション_187-87);
      }

      .cls-13 {
        fill: url(#_名称未設定グラデーション_187-84);
      }

      .cls-14 {
        fill: url(#_名称未設定グラデーション_187-88);
      }

      .cls-15 {
        fill: url(#_名称未設定グラデーション_187-81);
      }

      .cls-16 {
        fill: url(#_名称未設定グラデーション_187-82);
      }

      .cls-17 {
        fill: url(#_名称未設定グラデーション_187-85);
      }

      .cls-18 {
        fill: url(#_名称未設定グラデーション_187-70);
      }

      .cls-19 {
        fill: url(#_名称未設定グラデーション_187-76);
      }

      .cls-20 {
        fill: url(#_名称未設定グラデーション_187-77);
      }

      .cls-21 {
        fill: url(#_名称未設定グラデーション_187-78);
      }

      .cls-22 {
        fill: url(#_名称未設定グラデーション_187-79);
      }

      .cls-23 {
        fill: url(#_名称未設定グラデーション_187-73);
      }

      .cls-24 {
        fill: url(#_名称未設定グラデーション_187-74);
      }

      .cls-25 {
        fill: url(#_名称未設定グラデーション_187-75);
      }

      .cls-26 {
        fill: url(#_名称未設定グラデーション_187-72);
      }

      .cls-27 {
        fill: url(#_名称未設定グラデーション_187-71);
      }

      .cls-28 {
        fill: url(#_名称未設定グラデーション_187-97);
      }

      .cls-29 {
        fill: url(#_名称未設定グラデーション_187-98);
      }

      .cls-30 {
        fill: url(#_名称未設定グラデーション_187-94);
      }

      .cls-31 {
        fill: url(#_名称未設定グラデーション_187-95);
      }

      .cls-32 {
        fill: url(#_名称未設定グラデーション_187-13);
      }

      .cls-33 {
        fill: url(#_名称未設定グラデーション_187-16);
      }

      .cls-34 {
        fill: url(#_名称未設定グラデーション_187-18);
      }

      .cls-35 {
        fill: url(#_名称未設定グラデーション_187-17);
      }

      .cls-36 {
        fill: url(#_名称未設定グラデーション_187-12);
      }

      .cls-37 {
        fill: url(#_名称未設定グラデーション_187-19);
      }

      .cls-38 {
        fill: url(#_名称未設定グラデーション_187-21);
      }

      .cls-39 {
        fill: url(#_名称未設定グラデーション_187-23);
      }

      .cls-40 {
        fill: url(#_名称未設定グラデーション_187-29);
      }

      .cls-41 {
        fill: url(#_名称未設定グラデーション_187-22);
      }

      .cls-42 {
        fill: url(#_名称未設定グラデーション_187-28);
      }

      .cls-43 {
        fill: url(#_名称未設定グラデーション_187-32);
      }

      .cls-44 {
        fill: url(#_名称未設定グラデーション_187-20);
      }

      .cls-45 {
        fill: url(#_名称未設定グラデーション_187-14);
      }

      .cls-46 {
        fill: url(#_名称未設定グラデーション_187-15);
      }

      .cls-47 {
        fill: url(#_名称未設定グラデーション_187-10);
      }

      .cls-48 {
        fill: url(#_名称未設定グラデーション_187-11);
      }

      .cls-49 {
        fill: url(#_名称未設定グラデーション_187-27);
      }

      .cls-50 {
        fill: url(#_名称未設定グラデーション_187-26);
      }

      .cls-51 {
        fill: url(#_名称未設定グラデーション_187-25);
      }

      .cls-52 {
        fill: url(#_名称未設定グラデーション_187-24);
      }

      .cls-53 {
        fill: url(#_名称未設定グラデーション_187-59);
      }

      .cls-54 {
        fill: url(#_名称未設定グラデーション_187-57);
      }

      .cls-55 {
        fill: url(#_名称未設定グラデーション_187-55);
      }

      .cls-56 {
        fill: url(#_名称未設定グラデーション_187-58);
      }

      .cls-57 {
        fill: url(#_名称未設定グラデーション_187-50);
      }

      .cls-58 {
        fill: url(#_名称未設定グラデーション_187-64);
      }

      .cls-59 {
        fill: url(#_名称未設定グラデーション_187-61);
      }

      .cls-60 {
        fill: url(#_名称未設定グラデーション_187-63);
      }

      .cls-61 {
        fill: url(#_名称未設定グラデーション_187-62);
      }

      .cls-62 {
        fill: url(#_名称未設定グラデーション_187-56);
      }

      .cls-63 {
        fill: url(#_名称未設定グラデーション_187-69);
      }

      .cls-64 {
        fill: url(#_名称未設定グラデーション_187-68);
      }

      .cls-65 {
        fill: url(#_名称未設定グラデーション_187-66);
      }

      .cls-66 {
        fill: url(#_名称未設定グラデーション_187-67);
      }

      .cls-67 {
        fill: url(#_名称未設定グラデーション_187-60);
      }

      .cls-68 {
        fill: url(#_名称未設定グラデーション_187-39);
      }

      .cls-69 {
        fill: url(#_名称未設定グラデーション_187-65);
      }

      .cls-70 {
        fill: url(#_名称未設定グラデーション_187-49);
      }

      .cls-71 {
        fill: url(#_名称未設定グラデーション_187-46);
      }

      .cls-72 {
        fill: url(#_名称未設定グラデーション_187-31);
      }

      .cls-73 {
        fill: url(#_名称未設定グラデーション_187-34);
      }

      .cls-74 {
        fill: url(#_名称未設定グラデーション_187-36);
      }

      .cls-75 {
        fill: url(#_名称未設定グラデーション_187-33);
      }

      .cls-76 {
        fill: url(#_名称未設定グラデーション_187-37);
      }

      .cls-77 {
        fill: url(#_名称未設定グラデーション_187-38);
      }

      .cls-78 {
        fill: url(#_名称未設定グラデーション_187-35);
      }

      .cls-79 {
        fill: url(#_名称未設定グラデーション_187-30);
      }

      .cls-80 {
        fill: url(#_名称未設定グラデーション_187-47);
      }

      .cls-81 {
        fill: url(#_名称未設定グラデーション_187-44);
      }

      .cls-82 {
        fill: url(#_名称未設定グラデーション_187-45);
      }

      .cls-83 {
        fill: url(#_名称未設定グラデーション_187-42);
      }

      .cls-84 {
        fill: url(#_名称未設定グラデーション_187-48);
      }

      .cls-85 {
        fill: url(#_名称未設定グラデーション_187-41);
      }

      .cls-86 {
        fill: url(#_名称未設定グラデーション_187-40);
      }

      .cls-87 {
        fill: url(#_名称未設定グラデーション_187-43);
      }

      .cls-88 {
        fill: url(#_名称未設定グラデーション_187-51);
      }

      .cls-89 {
        fill: url(#_名称未設定グラデーション_187-52);
      }

      .cls-90 {
        fill: url(#_名称未設定グラデーション_187-53);
      }

      .cls-91 {
        fill: url(#_名称未設定グラデーション_187-54);
      }

      .cls-92 {
        fill: url(#_名称未設定グラデーション_187-114);
      }

      .cls-93 {
        fill: url(#_名称未設定グラデーション_187-116);
      }

      .cls-94 {
        fill: url(#_名称未設定グラデーション_187-110);
      }

      .cls-95 {
        fill: url(#_名称未設定グラデーション_187-115);
      }

      .cls-96 {
        fill: url(#_名称未設定グラデーション_187-118);
      }

      .cls-97 {
        fill: url(#_名称未設定グラデーション_187-117);
      }

      .cls-98 {
        fill: url(#_名称未設定グラデーション_187-111);
      }

      .cls-99 {
        fill: url(#_名称未設定グラデーション_187-113);
      }

      .cls-100 {
        fill: url(#_名称未設定グラデーション_187-119);
      }

      .cls-101 {
        fill: url(#_名称未設定グラデーション_187-102);
      }

      .cls-102 {
        fill: url(#_名称未設定グラデーション_187-104);
      }

      .cls-103 {
        fill: url(#_名称未設定グラデーション_187-103);
      }

      .cls-104 {
        fill: url(#_名称未設定グラデーション_187-101);
      }

      .cls-105 {
        fill: url(#_名称未設定グラデーション_187-108);
      }

      .cls-106 {
        fill: url(#_名称未設定グラデーション_187-105);
      }

      .cls-107 {
        fill: url(#_名称未設定グラデーション_187-100);
      }

      .cls-108 {
        fill: url(#_名称未設定グラデーション_187-107);
      }

      .cls-109 {
        fill: url(#_名称未設定グラデーション_187-106);
      }

      .cls-110 {
        fill: url(#_名称未設定グラデーション_187-112);
      }

      .cls-111 {
        fill: url(#_名称未設定グラデーション_187-109);
      }

      .cls-112 {
        fill: url(#_名称未設定グラデーション_187-9);
      }

      .cls-113 {
        fill: url(#_名称未設定グラデーション_187-7);
      }

      .cls-114 {
        fill: url(#_名称未設定グラデーション_187-4);
      }

      .cls-115 {
        fill: url(#_名称未設定グラデーション_187-3);
      }

      .cls-116 {
        fill: url(#_名称未設定グラデーション_187-2);
      }

      .cls-117 {
        fill: url(#_名称未設定グラデーション_187-8);
      }

      .cls-118 {
        fill: url(#_名称未設定グラデーション_187-6);
      }

      .cls-119 {
        fill: url(#_名称未設定グラデーション_187-5);
      }
    </style>
    <linearGradient id="_名称未設定グラデーション_187" data-name="名称未設定グラデーション 187" x1="97.8" y1="193.1" x2="116.1" y2="193.1" gradientUnits="userSpaceOnUse">
      <stop offset="0" stop-color="#804e00"/>
      <stop offset="0" stop-color="#855506"/>
      <stop offset=".1" stop-color="#946817"/>
      <stop offset=".3" stop-color="#ac8833"/>
      <stop offset=".3" stop-color="#c2a54c"/>
      <stop offset=".5" stop-color="#b0923f"/>
      <stop offset=".6" stop-color="#a17d2b"/>
      <stop offset=".6" stop-color="#8f6313"/>
      <stop offset=".7" stop-color="#835305"/>
      <stop offset=".8" stop-color="#804e00"/>
      <stop offset=".8" stop-color="#855506"/>
      <stop offset=".9" stop-color="#926818"/>
      <stop offset="1" stop-color="#a98836"/>
      <stop offset="1" stop-color="#b0923f"/>
    </linearGradient>
    <linearGradient id="_名称未設定グラデーション_187-2" data-name="名称未設定グラデーション 187" x1="110.9" y1="189.6" x2="128.4" y2="189.6" xlink:href="#_名称未設定グラデーション_187"/>
    <linearGradient id="_名称未設定グラデーション_187-3" data-name="名称未設定グラデーション 187" x1="123.7" y1="183.2" x2="136.2" y2="183.2" xlink:href="#_名称未設定グラデーション_187"/>
    <linearGradient id="_名称未設定グラデーション_187-4" data-name="名称未設定グラデーション 187" x1="129.9" y1="172.2" x2="140.6" y2="172.2" xlink:href="#_名称未設定グラデーション_187"/>
    <linearGradient id="_名称未設定グラデーション_187-5" data-name="名称未設定グラデーション 187" x1="85.1" y1="194.7" x2="100" y2="194.7" xlink:href="#_名称未設定グラデーション_187"/>
    <linearGradient id="_名称未設定グラデーション_187-6" data-name="名称未設定グラデーション 187" x1="99.3" y1="185.9" x2="118.3" y2="185.9" xlink:href="#_名称未設定グラデーション_187"/>
    <linearGradient id="_名称未設定グラデーション_187-7" data-name="名称未設定グラデーション 187" x1="112.9" y1="173.7" x2="131.9" y2="173.7" xlink:href="#_名称未設定グラデーション_187"/>
    <linearGradient id="_名称未設定グラデーション_187-8" data-name="名称未設定グラデーション 187" x1="125.5" y1="161.4" x2="140.8" y2="161.4" xlink:href="#_名称未設定グラデーション_187"/>
    <linearGradient id="_名称未設定グラデーション_187-9" data-name="名称未設定グラデーション 187" x1="88.3" y1="189.2" x2="100.6" y2="189.2" xlink:href="#_名称未設定グラデーション_187"/>
    <linearGradient id="_名称未設定グラデーション_187-10" data-name="名称未設定グラデーション 187" x1="74.4" y1="188.4" x2="90.6" y2="188.4" xlink:href="#_名称未設定グラデーション_187"/>
    <linearGradient id="_名称未設定グラデーション_187-11" data-name="名称未設定グラデーション 187" x1="80.5" y1="177.6" x2="100.5" y2="177.6" xlink:href="#_名称未設定グラデーション_187"/>
    <linearGradient id="_名称未設定グラデーション_187-12" data-name="名称未設定グラデーション 187" x1="94.5" y1="168" x2="116" y2="168" xlink:href="#_名称未設定グラデーション_187"/>
    <linearGradient id="_名称未設定グラデーション_187-13" data-name="名称未設定グラデーション 187" x1="108.9" y1="157.9" x2="129.1" y2="157.9" xlink:href="#_名称未設定グラデーション_187"/>
    <linearGradient id="_名称未設定グラデーション_187-14" data-name="名称未設定グラデーション 187" x1="121.8" y1="149.1" x2="137.9" y2="149.1" xlink:href="#_名称未設定グラデーション_187"/>
    <linearGradient id="_名称未設定グラデーション_187-15" data-name="名称未設定グラデーション 187" x1="131.4" y1="142.7" x2="143.2" y2="142.7" xlink:href="#_名称未設定グラデーション_187"/>
    <linearGradient id="_名称未設定グラデーション_187-16" data-name="名称未設定グラデーション 187" x1="136" y1="155.6" x2="143.1" y2="155.6" xlink:href="#_名称未設定グラデーション_187"/>
    <linearGradient id="_名称未設定グラデーション_187-17" data-name="名称未設定グラデーション 187" x1="67" y1="184.4" x2="75.3" y2="184.4" xlink:href="#_名称未設定グラデーション_187"/>
    <linearGradient id="_名称未設定グラデーション_187-18" data-name="名称未設定グラデーション 187" x1="60.7" y1="177.5" x2="68.3" y2="177.5" xlink:href="#_名称未設定グラデーション_187"/>
    <linearGradient id="_名称未設定グラデーション_187-19" data-name="名称未設定グラデーション 187" x1="63.8" y1="175.4" x2="82" y2="175.4" xlink:href="#_名称未設定グラデーション_187"/>
    <linearGradient id="_名称未設定グラデーション_187-20" data-name="名称未設定グラデーション 187" x1="85.1" y1="154.2" x2="106.9" y2="154.2" xlink:href="#_名称未設定グラデーション_187"/>
    <linearGradient id="_名称未設定グラデーション_187-21" data-name="名称未設定グラデーション 187" x1="100.7" y1="145.6" x2="122.1" y2="145.6" xlink:href="#_名称未設定グラデーション_187"/>
    <linearGradient id="_名称未設定グラデーション_187-22" data-name="名称未設定グラデーション 187" x1="113.7" y1="136.9" x2="132.1" y2="136.9" xlink:href="#_名称未設定グラデーション_187"/>
    <linearGradient id="_名称未設定グラデーション_187-23" data-name="名称未設定グラデーション 187" x1="125.3" y1="128.9" x2="139.5" y2="128.9" xlink:href="#_名称未設定グラデーション_187"/>
    <linearGradient id="_名称未設定グラデーション_187-24" data-name="名称未設定グラデーション 187" x1="58" y1="164.7" x2="92.4" y2="164.7" xlink:href="#_名称未設定グラデーション_187"/>
    <linearGradient id="_名称未設定グラデーション_187-25" data-name="名称未設定グラデーション 187" x1="55.9" y1="156" x2="70.2" y2="156" xlink:href="#_名称未設定グラデーション_187"/>
    <linearGradient id="_名称未設定グラデーション_187-26" data-name="名称未設定グラデーション 187" x1="63.2" y1="148.7" x2="83.3" y2="148.7" xlink:href="#_名称未設定グラデーション_187"/>
    <linearGradient id="_名称未設定グラデーション_187-27" data-name="名称未設定グラデーション 187" x1="77.7" y1="140.6" x2="99" y2="140.6" xlink:href="#_名称未設定グラデーション_187"/>
    <linearGradient id="_名称未設定グラデーション_187-28" data-name="名称未設定グラデーション 187" x1="92.7" y1="133" x2="113.8" y2="133" xlink:href="#_名称未設定グラデーション_187"/>
    <linearGradient id="_名称未設定グラデーション_187-29" data-name="名称未設定グラデーション 187" x1="106" y1="124.1" x2="127.3" y2="124.1" xlink:href="#_名称未設定グラデーション_187"/>
    <linearGradient id="_名称未設定グラデーション_187-30" data-name="名称未設定グラデーション 187" x1="118.5" y1="116.7" x2="134.7" y2="116.7" xlink:href="#_名称未設定グラデーション_187"/>
    <linearGradient id="_名称未設定グラデーション_187-31" data-name="名称未設定グラデーション 187" x1="129.9" y1="119.3" x2="136.9" y2="119.3" xlink:href="#_名称未設定グラデーション_187"/>
    <linearGradient id="_名称未設定グラデーション_187-32" data-name="名称未設定グラデーション 187" x1="126.1" y1="110.8" x2="133.3" y2="110.8" xlink:href="#_名称未設定グラデーション_187"/>
    <linearGradient id="_名称未設定グラデーション_187-33" data-name="名称未設定グラデーション 187" x1="62.1" y1="139.9" x2="77.8" y2="139.9" xlink:href="#_名称未設定グラデーション_187"/>
    <linearGradient id="_名称未設定グラデーション_187-34" data-name="名称未設定グラデーション 187" x1="72.2" y1="128.3" x2="89.2" y2="128.3" xlink:href="#_名称未設定グラデーション_187"/>
    <linearGradient id="_名称未設定グラデーション_187-35" data-name="名称未設定グラデーション 187" x1="84.7" y1="121.3" x2="105.3" y2="121.3" xlink:href="#_名称未設定グラデーション_187"/>
    <linearGradient id="_名称未設定グラデーション_187-36" data-name="名称未設定グラデーション 187" x1="96.8" y1="112.7" x2="119.6" y2="112.7" xlink:href="#_名称未設定グラデーション_187"/>
    <linearGradient id="_名称未設定グラデーション_187-37" data-name="名称未設定グラデーション 187" x1="107.3" y1="105.8" x2="126.3" y2="105.8" xlink:href="#_名称未設定グラデーション_187"/>
    <linearGradient id="_名称未設定グラデーション_187-38" data-name="名称未設定グラデーション 187" x1="119.8" y1="104.9" x2="128.5" y2="104.9" xlink:href="#_名称未設定グラデーション_187"/>
    <linearGradient id="_名称未設定グラデーション_187-39" data-name="名称未設定グラデーション 187" x1="56" y1="141.3" x2="64.2" y2="141.3" xlink:href="#_名称未設定グラデーション_187"/>
    <linearGradient id="_名称未設定グラデーション_187-40" data-name="名称未設定グラデーション 187" x1="58" y1="125.7" x2="68.7" y2="125.7" xlink:href="#_名称未設定グラデーション_187"/>
    <linearGradient id="_名称未設定グラデーション_187-41" data-name="名称未設定グラデーション 187" x1="65.1" y1="117.5" x2="80.2" y2="117.5" xlink:href="#_名称未設定グラデーション_187"/>
    <linearGradient id="_名称未設定グラデーション_187-42" data-name="名称未設定グラデーション 187" x1="75.3" y1="110.8" x2="96" y2="110.8" xlink:href="#_名称未設定グラデーション_187"/>
    <linearGradient id="_名称未設定グラデーション_187-43" data-name="名称未設定グラデーション 187" x1="88.8" y1="101.9" x2="109" y2="101.9" xlink:href="#_名称未設定グラデーション_187"/>
    <linearGradient id="_名称未設定グラデーション_187-44" data-name="名称未設定グラデーション 187" x1="100.5" y1="98.6" x2="119.1" y2="98.6" xlink:href="#_名称未設定グラデーション_187"/>
    <linearGradient id="_名称未設定グラデーション_187-45" data-name="名称未設定グラデーション 187" x1="64.2" y1="109.7" x2="79.9" y2="109.7" xlink:href="#_名称未設定グラデーション_187"/>
    <linearGradient id="_名称未設定グラデーション_187-46" data-name="名称未設定グラデーション 187" x1="76.9" y1="100.6" x2="95" y2="100.6" xlink:href="#_名称未設定グラデーション_187"/>
    <linearGradient id="_名称未設定グラデーション_187-47" data-name="名称未設定グラデーション 187" x1="96.9" y1="178.8" x2="113.9" y2="178.8" xlink:href="#_名称未設定グラデーション_187"/>
    <linearGradient id="_名称未設定グラデーション_187-48" data-name="名称未設定グラデーション 187" x1="81.3" y1="183.1" x2="97.4" y2="183.1" xlink:href="#_名称未設定グラデーション_187"/>
    <linearGradient id="_名称未設定グラデーション_187-49" data-name="名称未設定グラデーション 187" x1="114.3" y1="179.7" x2="127" y2="179.7" xlink:href="#_名称未設定グラデーション_187"/>
    <linearGradient id="_名称未設定グラデーション_187-50" data-name="名称未設定グラデーション 187" x1="110" y1="166.3" x2="126.7" y2="166.3" xlink:href="#_名称未設定グラデーション_187"/>
    <linearGradient id="_名称未設定グラデーション_187-51" data-name="名称未設定グラデーション 187" x1="87.2" y1="163.8" x2="104.9" y2="163.8" xlink:href="#_名称未設定グラデーション_187"/>
    <linearGradient id="_名称未設定グラデーション_187-52" data-name="名称未設定グラデーション 187" x1="103.9" y1="154.9" x2="116.8" y2="154.9" xlink:href="#_名称未設定グラデーション_187"/>
    <linearGradient id="_名称未設定グラデーション_187-53" data-name="名称未設定グラデーション 187" x1="122.7" y1="155.5" x2="136.8" y2="155.5" xlink:href="#_名称未設定グラデーション_187"/>
    <linearGradient id="_名称未設定グラデーション_187-54" data-name="名称未設定グラデーション 187" x1="127.4" y1="168.2" x2="139.4" y2="168.2" xlink:href="#_名称未設定グラデーション_187"/>
    <linearGradient id="_名称未設定グラデーション_187-55" data-name="名称未設定グラデーション 187" x1="78.4" y1="150" x2="93.4" y2="150" xlink:href="#_名称未設定グラデーション_187"/>
    <linearGradient id="_名称未設定グラデーション_187-56" data-name="名称未設定グラデーション 187" x1="72.8" y1="171.7" x2="91.3" y2="171.7" xlink:href="#_名称未設定グラデーション_187"/>
    <linearGradient id="_名称未設定グラデーション_187-57" data-name="名称未設定グラデーション 187" x1="93.9" y1="142" x2="108.9" y2="142" xlink:href="#_名称未設定グラデーション_187"/>
    <linearGradient id="_名称未設定グラデーション_187-58" data-name="名称未設定グラデーション 187" x1="115.7" y1="144.8" x2="130" y2="144.8" xlink:href="#_名称未設定グラデーション_187"/>
    <linearGradient id="_名称未設定グラデーション_187-59" data-name="名称未設定グラデーション 187" x1="73.1" y1="136.9" x2="87.8" y2="136.9" xlink:href="#_名称未設定グラデーション_187"/>
    <linearGradient id="_名称未設定グラデーション_187-60" data-name="名称未設定グラデーション 187" x1="86.4" y1="130.4" x2="99.4" y2="130.4" xlink:href="#_名称未設定グラデーション_187"/>
    <linearGradient id="_名称未設定グラデーション_187-61" data-name="名称未設定グラデーション 187" x1="108.5" y1="133.1" x2="124.6" y2="133.1" xlink:href="#_名称未設定グラデーション_187"/>
    <linearGradient id="_名称未設定グラデーション_187-62" data-name="名称未設定グラデーション 187" x1="65" y1="157.7" x2="78.9" y2="157.7" xlink:href="#_名称未設定グラデーション_187"/>
    <linearGradient id="_名称未設定グラデーション_187-63" data-name="名称未設定グラデーション 187" x1="64.1" y1="143.4" x2="76.3" y2="143.4" xlink:href="#_名称未設定グラデーション_187"/>
    <linearGradient id="_名称未設定グラデーション_187-64" data-name="名称未設定グラデーション 187" x1="67" y1="126.2" x2="76.5" y2="126.2" xlink:href="#_名称未設定グラデーション_187"/>
    <linearGradient id="_名称未設定グラデーション_187-65" data-name="名称未設定グラデーション 187" x1="77.3" y1="119" x2="91" y2="119" xlink:href="#_名称未設定グラデーション_187"/>
    <linearGradient id="_名称未設定グラデーション_187-66" data-name="名称未設定グラデーション 187" x1="99" y1="120.7" x2="112.9" y2="120.7" xlink:href="#_名称未設定グラデーション_187"/>
    <linearGradient id="_名称未設定グラデーション_187-67" data-name="名称未設定グラデーション 187" x1="64.8" y1="176.8" x2="81.3" y2="176.8" xlink:href="#_名称未設定グラデーション_187"/>
    <linearGradient id="_名称未設定グラデーション_187-68" data-name="名称未設定グラデーション 187" x1="90" y1="110.8" x2="103.6" y2="110.8" xlink:href="#_名称未設定グラデーション_187"/>
    <linearGradient id="_名称未設定グラデーション_187-69" data-name="名称未設定グラデーション 187" x1="65.1" y1="113.3" x2="74.8" y2="113.3" xlink:href="#_名称未設定グラデーション_187"/>
    <linearGradient id="_名称未設定グラデーション_187-70" data-name="名称未設定グラデーション 187" x1="78.4" y1="105.6" x2="90.2" y2="105.6" xlink:href="#_名称未設定グラデーション_187"/>
    <linearGradient id="_名称未設定グラデーション_187-71" data-name="名称未設定グラデーション 187" x1="102.5" y1="102.9" x2="112.3" y2="102.9" xlink:href="#_名称未設定グラデーション_187"/>
    <linearGradient id="_名称未設定グラデーション_187-72" data-name="名称未設定グラデーション 187" x1="113" y1="112.2" x2="124.3" y2="112.2" xlink:href="#_名称未設定グラデーション_187"/>
    <linearGradient id="_名称未設定グラデーション_187-73" data-name="名称未設定グラデーション 187" x1="123.7" y1="107.7" x2="127.2" y2="107.7" xlink:href="#_名称未設定グラデーション_187"/>
    <linearGradient id="_名称未設定グラデーション_187-74" data-name="名称未設定グラデーション 187" x1="127.4" y1="113" x2="132.8" y2="113" xlink:href="#_名称未設定グラデーション_187"/>
    <linearGradient id="_名称未設定グラデーション_187-75" data-name="名称未設定グラデーション 187" x1="132.4" y1="121.4" x2="135.8" y2="121.4" xlink:href="#_名称未設定グラデーション_187"/>
    <linearGradient id="_名称未設定グラデーション_187-76" data-name="名称未設定グラデーション 187" x1="120.5" y1="121.9" x2="132.5" y2="121.9" xlink:href="#_名称未設定グラデーション_187"/>
    <linearGradient id="_名称未設定グラデーション_187-77" data-name="名称未設定グラデーション 187" x1="127.6" y1="135.8" x2="138.2" y2="135.8" xlink:href="#_名称未設定グラデーション_187"/>
    <linearGradient id="_名称未設定グラデーション_187-78" data-name="名称未設定グラデーション 187" x1="131.6" y1="145.5" x2="140.4" y2="145.5" xlink:href="#_名称未設定グラデーション_187"/>
    <linearGradient id="_名称未設定グラデーション_187-79" data-name="名称未設定グラデーション 187" x1="136.2" y1="158.8" x2="140.9" y2="158.8" xlink:href="#_名称未設定グラデーション_187"/>
    <linearGradient id="_名称未設定グラデーション_187-80" data-name="名称未設定グラデーション 187" x1="59.2" y1="130.4" x2="66.7" y2="130.4" xlink:href="#_名称未設定グラデーション_187"/>
    <linearGradient id="_名称未設定グラデーション_187-81" data-name="名称未設定グラデーション 187" x1="58.7" y1="147.9" x2="66.7" y2="147.9" xlink:href="#_名称未設定グラデーション_187"/>
    <linearGradient id="_名称未設定グラデーション_187-82" data-name="名称未設定グラデーション 187" x1="57.2" y1="158.8" x2="68.1" y2="158.8" xlink:href="#_名称未設定グラデーション_187"/>
    <linearGradient id="_名称未設定グラデーション_187-83" data-name="名称未設定グラデーション 187" x1="60.3" y1="168.3" x2="72.3" y2="168.3" xlink:href="#_名称未設定グラデーション_187"/>
    <linearGradient id="_名称未設定グラデーション_187-84" data-name="名称未設定グラデーション 187" x1="64.1" y1="178.7" x2="68.5" y2="178.7" xlink:href="#_名称未設定グラデーション_187"/>
    <linearGradient id="_名称未設定グラデーション_187-85" data-name="名称未設定グラデーション 187" x1="70.3" y1="185.3" x2="76.5" y2="185.3" xlink:href="#_名称未設定グラデーション_187"/>
    <linearGradient id="_名称未設定グラデーション_187-86" data-name="名称未設定グラデーション 187" x1="76.6" y1="190.9" x2="89.8" y2="190.9" xlink:href="#_名称未設定グラデーション_187"/>
    <linearGradient id="_名称未設定グラデーション_187-87" data-name="名称未設定グラデーション 187" x1="89.4" y1="191.9" x2="101.7" y2="191.9" xlink:href="#_名称未設定グラデーション_187"/>
    <linearGradient id="_名称未設定グラデーション_187-88" data-name="名称未設定グラデーション 187" x1="101.2" y1="188.3" x2="116.7" y2="188.3" xlink:href="#_名称未設定グラデーション_187"/>
    <linearGradient id="_名称未設定グラデーション_187-89" data-name="名称未設定グラデーション 187" x1="101.1" y1="194.6" x2="114.3" y2="194.6" xlink:href="#_名称未設定グラデーション_187"/>
    <linearGradient id="_名称未設定グラデーション_187-90" data-name="名称未設定グラデーション 187" x1="114" y1="190.7" x2="126.3" y2="190.7" xlink:href="#_名称未設定グラデーション_187"/>
    <linearGradient id="_名称未設定グラデーション_187-91" data-name="名称未設定グラデーション 187" x1="124.4" y1="184.1" x2="131.2" y2="184.1" xlink:href="#_名称未設定グラデーション_187"/>
    <linearGradient id="_名称未設定グラデーション_187-92" data-name="名称未設定グラデーション 187" x1="130.6" y1="175.5" x2="137.1" y2="175.5" xlink:href="#_名称未設定グラデーション_187"/>
    <linearGradient id="_名称未設定グラデーション_187-93" data-name="名称未設定グラデーション 187" x1="65.7" y1="88.2" x2="101.9" y2="88.2" xlink:href="#_名称未設定グラデーション_187"/>
    <linearGradient id="_名称未設定グラデーション_187-94" data-name="名称未設定グラデーション 187" x1="69.7" y1="84.8" x2="89.5" y2="84.8" xlink:href="#_名称未設定グラデーション_187"/>
    <linearGradient id="_名称未設定グラデーション_187-95" data-name="名称未設定グラデーション 187" x1="72.8" y1="91.1" x2="93.7" y2="91.1" xlink:href="#_名称未設定グラデーション_187"/>
    <linearGradient id="_名称未設定グラデーション_187-96" data-name="名称未設定グラデーション 187" x1="94.3" y1="76.1" x2="99.9" y2="76.1" xlink:href="#_名称未設定グラデーション_187"/>
    <linearGradient id="_名称未設定グラデーション_187-97" data-name="名称未設定グラデーション 187" x1="98.2" y1="77.8" x2="111.7" y2="77.8" xlink:href="#_名称未設定グラデーション_187"/>
    <linearGradient id="_名称未設定グラデーション_187-98" data-name="名称未設定グラデーション 187" x1="101.9" y1="77" x2="110.8" y2="77" xlink:href="#_名称未設定グラデーション_187"/>
    <linearGradient id="_名称未設定グラデーション_187-99" data-name="名称未設定グラデーション 187" x1="91.2" y1="53.5" x2="108.1" y2="53.5" xlink:href="#_名称未設定グラデーション_187"/>
    <linearGradient id="_名称未設定グラデーション_187-100" data-name="名称未設定グラデーション 187" x1="92.4" y1="52.8" x2="105.2" y2="52.8" xlink:href="#_名称未設定グラデーション_187"/>
    <linearGradient id="_名称未設定グラデーション_187-101" data-name="名称未設定グラデーション 187" x1="103.9" y1="57.3" x2="110.8" y2="57.3" xlink:href="#_名称未設定グラデーション_187"/>
    <linearGradient id="_名称未設定グラデーション_187-102" data-name="名称未設定グラデーション 187" x1="83.4" y1="31.5" x2="103.3" y2="31.5" xlink:href="#_名称未設定グラデーション_187"/>
    <linearGradient id="_名称未設定グラデーション_187-103" data-name="名称未設定グラデーション 187" x1="61.1" y1="43.8" x2="89.2" y2="43.8" xlink:href="#_名称未設定グラデーション_187"/>
    <linearGradient id="_名称未設定グラデーション_187-104" data-name="名称未設定グラデーション 187" x1="108.2" y1="61.4" x2="151.4" y2="61.4" xlink:href="#_名称未設定グラデーション_187"/>
    <linearGradient id="_名称未設定グラデーション_187-105" data-name="名称未設定グラデーション 187" x1="103" y1="34.7" x2="129.1" y2="34.7" xlink:href="#_名称未設定グラデーション_187"/>
    <linearGradient id="_名称未設定グラデーション_187-106" data-name="名称未設定グラデーション 187" x1="102" y1="26.3" x2="113" y2="26.3" xlink:href="#_名称未設定グラデーション_187"/>
    <linearGradient id="_名称未設定グラデーション_187-107" data-name="名称未設定グラデーション 187" x1="101.4" y1="82.4" x2="148.8" y2="82.4" xlink:href="#_名称未設定グラデーション_187"/>
    <linearGradient id="_名称未設定グラデーション_187-108" data-name="名称未設定グラデーション 187" x1="100.6" y1="88.6" x2="106.5" y2="88.6" xlink:href="#_名称未設定グラデーション_187"/>
    <linearGradient id="_名称未設定グラデーション_187-109" data-name="名称未設定グラデーション 187" x1="83.5" y1="98" x2="97" y2="98" xlink:href="#_名称未設定グラデーション_187"/>
    <linearGradient id="_名称未設定グラデーション_187-110" data-name="名称未設定グラデーション 187" x1="105.1" y1="88.7" x2="137.5" y2="88.7" xlink:href="#_名称未設定グラデーション_187"/>
    <linearGradient id="_名称未設定グラデーション_187-111" data-name="名称未設定グラデーション 187" x1="101.2" y1="93.7" x2="131.6" y2="93.7" xlink:href="#_名称未設定グラデーション_187"/>
    <linearGradient id="_名称未設定グラデーション_187-112" data-name="名称未設定グラデーション 187" x1="102.9" y1="97.3" x2="123.5" y2="97.3" xlink:href="#_名称未設定グラデーション_187"/>
    <linearGradient id="_名称未設定グラデーション_187-113" data-name="名称未設定グラデーション 187" x1="92" y1="61.6" x2="93.8" y2="61.6" xlink:href="#_名称未設定グラデーション_187"/>
    <linearGradient id="_名称未設定グラデーション_187-114" data-name="名称未設定グラデーション 187" x1="61.6" y1="72.8" x2="96.5" y2="72.8" xlink:href="#_名称未設定グラデーション_187"/>
    <linearGradient id="_名称未設定グラデーション_187-115" data-name="名称未設定グラデーション 187" x1="57.9" y1="60.5" x2="97.8" y2="60.5" xlink:href="#_名称未設定グラデーション_187"/>
    <linearGradient id="_名称未設定グラデーション_187-116" data-name="名称未設定グラデーション 187" x1="102.1" y1="30" x2="112" y2="30" xlink:href="#_名称未設定グラデーション_187"/>
    <linearGradient id="_名称未設定グラデーション_187-117" data-name="名称未設定グラデーション 187" x1="63.5" y1="44.8" x2="89.4" y2="44.8" xlink:href="#_名称未設定グラデーション_187"/>
    <linearGradient id="_名称未設定グラデーション_187-118" data-name="名称未設定グラデーション 187" x1="84.2" y1="97.2" x2="96.3" y2="97.2" xlink:href="#_名称未設定グラデーション_187"/>
    <linearGradient id="_名称未設定グラデーション_187-119" data-name="名称未設定グラデーション 187" x1="109.6" y1="87.1" x2="136.5" y2="87.1" xlink:href="#_名称未設定グラデーション_187"/>
  </defs>
  <g>
    <path class="cls-1" d="M111.9,189.4c-9.9.2-13.3,5.2-13.5,5.4l-.6.9,1.1.3c7.2,2.1,15.9-.9,16.3-1l1-.3-.5-.9c-1.6-2.7-3.1-4.1-3.1-4.2l-.2-.2h-.3ZM111.5,190.4c.4.4,1.5,2.4,2.4,3.7-2.3.6-8.2,1.7-13.3.7,1.4-1.3,4.7-4.2,10.9-4.4h0Z"/>
    <path class="cls-116" d="M117.3,184.6h0c-.2,0-3.9,1.4-6.1,5.2l-.3.5,3.6,4.8h.4c.5,0,11.2-.5,13.4-8.8l.2-.6-.6-.3c-.2,0-4.1-1.9-10.5-.7h0ZM126.5,186.5c-2,5.7-7,6.8-10.7,6.7-.4-.5-1.8-1.6-2.3-2.2.9-2.8,3.9-5.2,4.1-5.3,4.4-.8,7.6.5,8.9.9h0Z"/>
    <path class="cls-115" d="M123.7,184.8l.2.7s1.7.7,2.5,1c-.2.4-1.7,3.5-1.7,3.5l2.5-1.6c.7-.4,6.6-4.3,7.7-6.1h0c0-.1,0-.3,0-.3,0,0,.4-2.8,1-4.5l.3-1h-1.1c0,0-8.9-.4-11.5,8.4h0ZM134,178.1c-.5,2-.1,3.8,0,3.4-.6.8-3.5,2.6-5.6,4.1-.2,0-1.7-.7-2.5-1,1-6.4,6.1-6.3,8.1-6.5h0Z"/>
    <path class="cls-114" d="M138.9,166.5c-.2.2-5.9,4.1-7.6,6.4-.2.2-1.4,1.8-1.4,4.9v.9s2.8-.4,4-.6c.2.2,1.1.8,1.1.8l4.1-3.6v-.4s0-3.8,1-7.6l.5-2.1-1.8,1.2h0ZM132.5,173.9h0c1-1.4,4.5-4.1,6.3-5.4-.8,2.8-1.3,5.4-1.3,6.2-.2.2-1.5.9-2.4,1.7-.3,0-2.4.4-3.6.5.2-2,1-3,1-3h0ZM131.2,172.9h0s0,0,0,0Z"/>
    <path class="cls-119" d="M93.2,192.2h0l-8,2.2,2,.9c.3.1,8.1,3.6,12.4.5l.5-.3-.2-.6c0-.1-1.1-3-6.6-2.8h0ZM97.9,195c-2.3,1.1-5.6.4-7.8-.2,1.6-.4,3.2-1.4,3.3-1.4,2.7,0,3.9,1.1,4.5,1.7h0Z"/>
    <path class="cls-118" d="M106.5,178.8h-.2s-.1.1-.1.1c-4.4,2.7-6.7,5.6-6.9,8.5-.2,3.3,2.3,5.5,2.4,5.6l2-1.2s-2.1-1.6-2.1-3.9,0-.2,0-.3c.2-2.4,1.3-5.3,5.1-7.6.9,0,5,.3,7.6,2.3,1.1.9,1.4,2.2,1.6,3.7l2.4-.6c-.2-2-1.1-3.5-2.5-4.6-3.4-2.7-9-1.9-9.2-1.9h0Z"/>
    <path class="cls-113" d="M126.1,165.8c-6.2,1.2-10.2,3.6-12.1,7.1-2.1,3.9-.6,7.7-.5,7.9l2.5,1s-.5-2.6-.5-4.3.2-2.7.9-4c1.6-3,4.4-5.3,9.9-6.4.9.8,4,5.1,3.7,10.1l1.9-3.2c-.6-4.5-4.9-7.8-5.1-7.9l-.3-.2h-.4q0,0,0,0Z"/>
    <path class="cls-117" d="M135.7,154.8c-8.8,2.9-10.1,11.3-10.2,11.7l2.8,1.6c0-.3.3-9.4,7.6-12.1,1.4,1.9,2.9,6.3,2.9,8.9s-.5,2.3-.9,2.8h2c3.1-3.7-2.7-11.7-3.4-12.6l-.4-.5-.5.2h0Z"/>
    <path class="cls-112" d="M91.9,184.4l-.2.3c-.2.2-5.5,6-2.4,9.5l1.8-.6c-.4-.5-.7-1.8-.7-2.3,0-2.1,1.5-4.9,2.2-5.7,5.5,0,7.3,3.6,7.3,3.6l.4-1.7.4-.7c-.2-.4-2.6-3-8.3-2.2h-.4Z"/>
    <path class="cls-47" d="M78.1,181.8c-4.5,3.7-3.7,8.2-3.7,8.4v.4c0,0,.5.2.5.2,2.4.9,3.9,2.7,3.9,2.8v.2c.1,0,.3,0,.3,0,6.3,2.7,10.3.7,10.5.6l.7-.4-.4-.7c-1.2-2.3.3-4.5.3-4.6l.3-.4-.3-.4c-3.6-5.7-11.3-6.2-11.7-6.2h-.3s-.2.2-.2.2h0ZM76.6,189.3c0-1.2-.4-4.4,2.1-6.6,1.4.1,6.7,1.1,9.7,6.5-.3.6-.5.8-.5,2.2s0,1.2.3,1.8c-1.2.4-4.2.9-8.3-.8-.4-.5-1.1-2.1-3.2-3,0-.1,0,0,0,0h0Z"/>
    <path class="cls-48" d="M92.6,168.9c-13.8,4.3-12,13.4-11.9,13.8l2.4.8c0,0-.1-1.6-.1-2.1,0-2.1.4-7.5,9.9-11.2,1.4,1.3,5.3,6.6,5.3,10.8v.3c0,1.6-1.2,2.8-2.8,3.8l2,1.5c2-1.4,3.1-3.1,3.2-5.2.3-5.8-6.8-12-7.1-12.3l-.4-.3-.4.2h0Z"/>
    <path class="cls-36" d="M107.7,160.4c-11.4,2.7-13.2,10.9-13.2,11.2l2.3,1.8c0-.3,1-9.2,11.1-11.8,1.3.8,5.7,5.6,5.7,10.4s0,3.3,0,3.6l2.3-3.2c1.1-7.1-7.3-11.8-7.6-12l-.3-.2h-.3q0,0,0,0Z"/>
    <path class="cls-32" d="M121.4,151.2c-11.2,3-12.6,11-12.6,11.3l2.9,1.6s.3.6.3.5c0-.8-1.1-8.8,9.6-12.3,1.1.7,4.9,4.1,5.6,11l1.8-2.2c-1.5-6.5-6.8-9.6-7-9.7l-.3-.2h-.3c0,.1,0,0,0,0Z"/>
    <path class="cls-45" d="M131.1,142.3c-7.8,3-9.3,9.4-9.4,9.6l2.5,1.5s.1-5.8,7.2-9.9c1.2.8,4.3,3.8,4.3,8.7s-.4,2.3-.8,3.5l2.3.6c2.8-9.1-5.3-13.9-5.4-13.9l-.4-.2-.4.2h0Z"/>
    <path class="cls-46" d="M139.3,134.6c-7.6,1.5-8,7.8-8,7.9l2.3,2s-.1-.9-.1-1c0-.7.4-6.3,5.9-7.7.6,1.1,2,3.8,2,7.1s-.9,5.1-2.7,7.2l2,.8c5.9-7.2-.5-15.8-.5-15.9l-.3-.5h-.5c0,.1,0,.1,0,.1Z"/>
    <path class="cls-33" d="M136,149.4c2.1,1.8,4.9,2.6,6.1,2.9-.1,4.1-2.9,10-2.9,10l1.4.7c.1-.3,2.7-6.4,2.5-11v-.7s-.7-.1-.7-.1c0,0-3-1-5.4-3l-1,1.2h0Z"/>
    <path class="cls-35" d="M67,184.5v.3s.2.2.2.2c4.2,4.6,7.7,4.5,7.8,4.5l.3-2.5s-3.5.9-7.1-2.9c0,0,0,0,0,0,0-.7-.1-2.5.7-3.8l-.7-.8c-1.3,2.2-1.1,5-1.1,5.1h0Z"/>
    <path class="cls-34" d="M62.3,172.2h-.6c0,.1-1,6.4-1,6.4l6.6,4.5,1-2.3s-5.1-2.4-5.9-2.9c.1-.7,0-3.5.1-4.3.6-.1,2.1-.1,2.1-.1l-.3-1.6-2.2.4h0Z"/>
    <path class="cls-37" d="M72.1,165.5c-7.8,3.2-8.3,7.5-8.3,7.7v.2s0,.2,0,.2c3.5,9.7,11.8,11.8,12.2,11.9l.4-1.6c0,0-7.4-.8-10.6-9.5.2-.7,1.1-5.4,6.7-7.7,1.4.9,7.3,6.3,7.9,15.8l1.7-3.6c-1.2-8.7-8.9-13-9.2-13.2l-.3-.2h-.4c0,.1,0,.1,0,.1Z"/>
    <path class="cls-44" d="M98.8,146.6c-11,1-13.7,10.1-13.7,10.2l2.5,2.5c0-.3,1.6-10.5,11.4-11.5,3.5,2.4,5.2,4.6,5.2,12.7s0,.9,0,1.4l2.8-.8c.8-11.1-7.6-14.4-7.7-14.4h-.2c0,0-.2,0-.2,0h0Z"/>
    <path class="cls-38" d="M112.6,138.8c-8.3,2.3-11.8,9.7-11.9,9.9l2.5,2.1s.9-6.9,9.7-10.7c1.5.8,6.6,5.6,6.6,10.8s0,1-.2,1.6l2.6-.5c1.9-7.9-8.2-12.9-8.6-13.1l-.3-.2h-.3Z"/>
    <path class="cls-41" d="M124.5,130.6c-10.5,2.9-10.8,9.5-10.8,9.8l2.5,2.4c0-.2-.6-8.3,8.4-11,1,.4,4.9,1.9,5.3,9.5,0,.7.3,1.3.1,2.1h1.9c1.5-10.5-6.9-12.8-7-12.8h-.2c0,0-.2,0-.2,0h0Z"/>
    <path class="cls-39" d="M130.2,122.1c-4.7,3.4-4.9,9.2-4.9,9.4l2.5,1.3s-.7-6.8,3.1-9.7c.9.2,3.2,1.2,5.5,4.4,1,1.4,1.3,2.3,1.3,4.3s-.6,3-.8,4.1l2.3-.6c.8-3.9.4-7.1-1.4-9.5-2.5-3.4-6.7-3.9-6.9-3.9h-.3s-.2.2-.2.2h0Z"/>
    <path class="cls-52" d="M83.6,154.8c-7.1,1.2-10.3,6.3-11.3,8.9-2.8-2.7-10.6-2.8-12.3-2.9h-.5s-.2.4-.2.4c-3.9,6.7,2.2,13.3,2.5,13.6l1.8-2.1s-3.3-2.1-3.9-6.8c-.2-1.1,0-3,.5-4.1,4.7.3,10.8,2,11,4.2l3.2,1.5c0-.3-.3-8.3,9.5-11.4,1.3,1.1,6.2,5.8,6.2,11.4s-.1,1.7-.4,2.6l2.3-.2c2.5-8.7-7.3-14.6-7.7-14.9l-.3-.2h-.4c0,.1,0,0,0,0Z"/>
    <path class="cls-51" d="M56.4,149.4c-1.9,7.3,2.1,13.4,2.3,13.7l1.8-2s-3.4-3.2-3.4-8.1,0-2.2.1-3.1c2.6.6,10.1,3.3,10.3,12.8l2.7.9c-.2-12.3-12.8-14.6-12.9-14.6h-.7c0-.1-.2.6-.2.6h0Z"/>
    <path class="cls-50" d="M73.9,141.8c-8.2,2.6-10.6,10.4-10.7,10.7l2.7,1.8c0,0,.9-8.2,8.3-11.2,1.2.4,6.8,2.8,6.8,11.5s0,.7,0,1.1h2.3c.6-12-8.8-13.9-8.9-14h-.2s-.2,0-.2,0h0Z"/>
    <path class="cls-49" d="M88.3,133.8c-8.3,3-10.5,10.4-10.6,10.7l2.5,2.2c0,0,.9-8.6,8.7-11.8,1.4.4,6.5,3.3,7.5,12.6l2.6-.3c-1.3-11.5-10.2-13.5-10.2-13.5h-.3c0,0-.3,0-.3,0h0Z"/>
    <path class="cls-42" d="M104.2,126.2c-9.3,2.5-11.4,10.7-11.5,11l2.3,2.7c0,0,1.1-8.9,9.6-12.4,1.3.3,6.6,2.8,6.6,10.6s0,1.1,0,1.8l2.6-.2c1.3-11.6-9-13.5-9.1-13.5h-.2s-.2,0-.2,0h0Z"/>
    <path class="cls-40" d="M118.6,117.6c-8.2,2-12.4,9.1-12.6,9.3l2.7,1.4c0,0,2.5-6.4,10.3-9.5,1.3.8,6.1,5.1,6.9,12l1.4-3c-1.3-6.5-7.7-10-8-10.2l-.3-.2h-.3Z"/>
    <path class="cls-79" d="M125.8,110.2c-6.7,2.6-7.3,7.4-7.3,7.4l2.3,1.3h0c0-.6.3-5.5,5.1-7.6,1.1,1.1,3.9,5.4,6,11.9l2.7.3c-2.6-8.1-7.9-13-8.1-13.2l-.4-.3-.4.2h0Z"/>
    <path class="cls-72" d="M132.7,113.8l-2.8,1.6.8,1.4s1.9-1.5,2.7-1.9c2.7,3.9,1.6,7.6,1.6,9.3s.4.6.4.7h1.6c0-.2.4-7.8-3.3-11l-.4-.4-.5.3h0Z"/>
    <path class="cls-43" d="M128.4,106.3c-2.5,2.1-2.3,4.5-2.3,4.6l1.9,1.7s-.3-1.5-.3-1.8c0-.7.3-2.6,1.3-3.7.9.8,3,2.7,2.5,7.8,0,.1-.3.7-.3.8l2.2-.9c.2-5.6-3.8-8.4-3.9-8.5l-.5-.3s-.5.4-.5.4Z"/>
    <path class="cls-75" d="M65,132.3h-.1c0,0,0,.2,0,.2-6.3,9.3.8,16.2.9,16.3l1.6-2.2c-.2-.2-2.3-2.4-3.1-6.7-.4-2.3-.2-4.2,1.5-6.7.6-.3,3.4-.9,5.7.3,2.5,1.2,3.3,3.2,3.9,8.8l2.5,1.2c-.1-6.5-2.5-10.3-5.5-11.8-3.5-1.7-7.2.5-7.3.6h0Z"/>
    <path class="cls-73" d="M80.8,122c-8.2,3-8.5,10.5-8.5,10.5l2.1,1.6c0-.3-.2-8.4,6.7-11,2,.6,5.9,3.5,5.9,11.2v.4l2.3-.8c.2-10.2-8-12-8-12h-.2s-.2,0-.2,0h0Z"/>
    <path class="cls-78" d="M94.9,115.6c-7.9,1.6-10.2,9.1-10.3,9.3l2.1,1.9s1.1-7.5,8.6-10c1.4.3,7.6,2.8,7.6,9.7s.7,0,.7.4h1.6c.6-9.5-9.8-11.3-9.9-11.4h-.2s-.2,0-.2,0Z"/>
    <path class="cls-74" d="M106.6,106.7h-.2c-8.8,3.2-9.5,9.3-9.5,9.5l2.3,1.6c0-.2-.2-7.2,7.5-10,1.1,0,7.1.9,10.3,10.8l2.7-.6c-3.7-11.7-12.9-11.4-13-11.4h0Z"/>
    <path class="cls-76" d="M118.4,100.3c-11.4,1.5-11.1,7-11.1,7.3l2.6.8v-.3c.1-.2-.6-5.3,8.7-6.5,1,.8,3.7,3.5,5.3,9.7l2.4-.6c-2.1-6.6-7.1-10.1-7.3-10.2l-.3-.2s-.3,0-.3,0Z"/>
    <path class="cls-77" d="M122.3,101l-2.5.6,1,1.8s2.1-1.1,3.7-1c.6.6,2.4,3.5,2.5,6.5l1.5-1c-.4-3.2-3.3-6-3.5-6.1l-.2-.2-2.5-.5h0Z"/>
    <path class="cls-68" d="M58.1,135.4c-2.2,5.1-2.1,6.8-2.1,7h0c0,0,1.8,6.9,1.8,6.9l2.8.8s-3-7.8-3-8c0-.3-.4-2.1,1.4-6.3.7-1.6,1.9-2.5,2.3-2.4.6.1,1.7,2,1.7,3l1.2-.2c0-1.4-.9-3.6-2.6-3.9-.9-.2-2.3.2-3.6,3h0Z"/>
    <path class="cls-86" d="M63,117.2c-.3,1.2-2.6,4.5-4.1,6.3h-.1c0,.1,0,.3,0,.3-1.8,8.1,0,10.8.1,11.1l2.4-1.6s-1.3-.5-1.3-3.2-.3-3.2.3-5.7c.6-.8,2.7-4.6,3.6-6.6.9.7,2.4,3.6,2.4,9s0,3.4-.3,5.5l2.5-.7c1-9.3-1.3-12.3-2.7-13.9-.9-1.1-1.8-1.2-2-1.2h-.7s-.1.6-.1.6h0Z"/>
    <path class="cls-85" d="M74.6,111.8c-7.3.8-9.3,6.6-9.5,6.8l1.4,2.1s2.1-7.1,8.1-7.9c.9.7,3.6,3.9,3.6,8.3s0,1.5-.2,2.3l2.1-.4c.7-7.6-4.6-10.9-4.8-11.1l-.3-.2h-.4c0,.1,0,.1,0,.1Z"/>
    <path class="cls-83" d="M86.2,104.9c-8.5,2.3-10.9,7.8-11,8.1l2.3,1.6s1.3-6.4,8.8-8.6c1.1.3,5.7,2.7,7.2,10.5l2.5-.5c-1.9-9.6-9.1-11.2-9.4-11.2h-.2s-.2,0-.2,0h0Z"/>
    <path class="cls-87" d="M98.3,97.1c-8.5,1.7-9.4,9.4-9.5,9.5l1.6.2c0-.3.9-6.5,8-8.1,1.1.4,7.1,2.8,9.1,7.5l1.5-.6c-2.5-5.9-10-8.4-10.3-8.5h-.2c0,0-.2,0-.2,0h0Z"/>
    <path class="cls-81" d="M109.1,95.7c-6.7,0-8.3,2.7-8.5,3l2.1,1.5s.9-3.6,6.5-3.6c.8.3,2.2,2.9,6.1,4.8l3.7-.5c-4.4-2.2-9.7-5.1-9.7-5.2h-.1c0,0-.2,0-.2,0h0Z"/>
    <path class="cls-82" d="M76.1,102.1c-3,2.4-6.2,3-6.2,3h-.3c0,0-.2.3-.2.3-3.5,4.9-5.1,11.8-5.1,12.1l2.8.3c0,0,.2-6.9,3.3-11.5.9-.2,3.7-1.4,6.3-3.3.7.9,1.2,3,1.2,4.9s-.2,3.7-.3,3.9l2.3-2.6c.4-3.7-2.5-6.9-2.6-7.1l-.5-.5-.6.5h0Z"/>
    <path class="cls-71" d="M82.8,97.3h-.3c0,0-.2.3-.2.3-1.1,1.7-5.4,5.4-5.5,5.4l1.1,1.2c.7,1.7,4-4.1,5.5-6.1,1.3-.3,6.7-.2,10.1,1.7l1.5-2c-4.4-2.5-11.9-.8-12.2-.7h0Z"/>
    <path class="cls-80" d="M97.2,174.4s6.9,3.1,8.7-4.8c0,0-2.1,7.2,8,10.6l-7.2-.7s-5.2,3.7-6.5,8.6l-3.2-2.5s5.1-5.2.3-11.1h0Z"/>
    <path class="cls-84" d="M82.4,179.8s6.3,4,8.4-2.5c0,0-2,6.1,6.7,6.9l-.5,1.2-4.7-.4-2.5,3.9s-2.9-4-8.4-6.3l1.1-2.8h0Z"/>
    <path class="cls-70" d="M114.3,177.4s6,5.7,9.3-3.2c0,0-1.3,7.5,3.3,6.3l-2.7,4.3s-5.5.3-6.8.4l-2.9-4.3-.3-3.5h0Z"/>
    <path class="cls-57" d="M111.2,160.1s5.5,7.5,8.7-.5c0,0-1.6,8.4,6.8,5.1l-.5,1.7s-8.7,2.1-11,6.7c0,0,0-4.1-5.2-10l1.2-2.9h0Z"/>
    <path class="cls-88" d="M87.2,156.6s5.2,9.1,10-1.3c0,0-.4,11,7.7,6.1,0,0-7.3,4.1-9.6,11l-2.3-3.1-1.7.7s-.7-6.3-4.1-13.4h0Z"/>
    <path class="cls-89" d="M103.9,151.1s6.4,5.6,8-3.7c0,0-1.7,7.5,4.9,6.4,0,0-5.5,3.6-6.8,8.7l-2-1.5-2.3.4s.4-5.1-1.9-10.3h0Z"/>
    <path class="cls-90" d="M123.6,150.6s4,7.6,7.1-1.1c0,0-1.1,8.4,6.1,4.5,0,0-7.1,4.3-8.3,7.3,0,0-2.1-6.9-5.9-9.1l.9-1.7h0Z"/>
    <path class="cls-91" d="M128.4,163.7s3.2,8.7,6.4-2c0,0,.1,9.5,4.5,3.7l-.9,2.5-7.9,6.8s-.9-4.1-3.2-8.6l1.1-2.5h0Z"/>
    <path class="cls-55" d="M79.8,142.7s1.5,11.1,8.4.1c0,0-4,8.8,5.2,6,0,0-5.9,3.6-7.5,8.4l-1.9-1.7h-2c0,.1-1.3-10.1-3.7-11.5l1.5-1.3h0Z"/>
    <path class="cls-62" d="M73.5,163.8s2.9,11.8,8.8-.7c0,0-3.1,14,8.9,2.7l-1.1,4.5s-6.5,1.3-8.4,9.9c0,0-3.8-9.1-9-14.7,0,0,.7-1.7.7-1.7Z"/>
    <path class="cls-54" d="M94,135.2s3.3,10.1,9.1-.7c0,0-4.5,10.4,5.9,6.7,0,0-6,3.6-6.8,8.3l-4.1-2.7s-4.7-9.9-4-11.6h0Z"/>
    <path class="cls-56" d="M115.7,140s6.9,8,8.7-2.7c0,0-1.6,8.7,5.6,6,0,0-3.1,2.1-7.3,8.9l-1.9-1.5s-5.1-10.8-5.1-10.8Z"/>
    <path class="cls-53" d="M73.1,131.9s5.1,8.3,7.9-2.7c0,0,0,10.5,6.8,4.1,0,0-4.1,3.3-8.7,11.4l-2.8-1.3s-1.9-9.1-3.2-11.5h0Z"/>
    <path class="cls-67" d="M86.4,123.7s2.1,9.6,8.4-.9c0,0-5.2,10.7,4.7,5.9l-5.6,9.3s-2.9-2.9-5.6-3.7l-1.9-10.6h0Z"/>
    <path class="cls-59" d="M108.5,127.2s5.6,8.1,8.9-1.7c0,0-2.8,9.7,7.1,5.5l-5.7,3.2-4.4,6.5-1.5-1.5-4.4-12h0Z"/>
    <path class="cls-61" d="M65,151.1s4,9.3,8.7-1.6c0,0-4.4,12.3,5.2,7.5l-5.6,8.9-4.5-3.3-3.7-11.5h0Z"/>
    <path class="cls-60" d="M64.1,142.2s6,5.9,3.9-4.4c0,0,2.3,7.6,7.3.9l1.1,4.7-2-1.1s-5.3,2.1-8,6.8l-2.3-6.9h0Z"/>
    <path class="cls-58" d="M67.4,121.2s2.4,11,5.6-2.3c0,0-2.4,10.7,3.5,6.5l-3.5,8-6-1.5.4-10.8h0Z"/>
    <path class="cls-69" d="M77.3,114s6.1,11.1,8.3-2.1c0,0-2.1,11.1,5.5,5.6l-5.3,8.7-4.5-3.6-2.4,1.1s.8-5.1-1.5-9.6Z"/>
    <path class="cls-65" d="M99,116.9s8.4,8.6,7.9-3.3c0,0,.5,8.9,6,7.2l-5.6,7.1-2.7-1.7-5.5-9.2h0Z"/>
    <path class="cls-66" d="M68.2,168.7s-3.3,11.2,3.1,4.4c0,0-3.3,15.5,9.9,5.7v3.7c.1,0-2.5-.5-2.5-.5l-2.3,2.8s-9.6-2.8-11.6-11.5l3.5-4.7h0Z"/>
    <path class="cls-64" d="M90,105.9s4.6,8.1,8.3-1.6c0,0-2.4,8.4,5.2,4.3,0,0-5.5,4.3-5.7,8.8l-3.2-1.3s-4.6-10.1-4.6-10.1Z"/>
    <path class="cls-63" d="M69.1,107.6s-2.2,7.1,4.7.3c0,0-4.2,4.7,1,4.2,0,0-6.3,2.2-8.7,7l-.9-1.4s1.2-7.9,4-10.1h0Z"/>
    <path class="cls-18" d="M78.4,103.6s1.9,5.3,6.6-2.8c0,0-2.4,5.5,5.2,3.5l-.7,2.7-3.2-1.5s-3.7.9-7.4,4.9l-.5-6.7h0Z"/>
    <path class="cls-27" d="M103.1,99.4s4.4,4.6,5.7-.9c0,0-1.8,5.9,3.6,3.9l-3.9,4.6s-2.1-5.6-5.9-6.9l.6-.8h0Z"/>
    <path class="cls-26" d="M113,109s6.3,5,5.1-2.9c0,0,.8,7.2,6.3,4.8l-5.6,7.3s-5.7-9.2-5.7-9.2Z"/>
    <path class="cls-23" d="M123.7,105.6s1.1,1.5.9-.9c0,0,.4,4.9,2.6,3.1l-1,2.8s-2.6-5-2.6-5Z"/>
    <path class="cls-24" d="M127.4,111.3s2.7,2.7,2.7-1.9c0,0,.4,7.1,2.5,4.7l.3.6-2.6,1.9s-2.9-5.3-2.9-5.3Z"/>
    <path class="cls-25" d="M132.4,118.8s2,3.5,1.4-1.1l1.9,5.9-.8,1.4-2.1-1.8s-.5-4.5-.5-4.5Z"/>
    <path class="cls-19" d="M120.5,118.3s6.2,5.6,5.3-2.6c0,0,1.1,11.6,5.3,4.1l1.4,3.2s-2.1-2.7-5.5,5.1l-6.5-9.9h0Z"/>
    <path class="cls-20" d="M127.6,131.8s5.9,6.5,5.7-2.6c0,0,.5,10.7,4.9,3l-.7,3.3s-3.7,2-5.5,6.8l-4.3-10.5Z"/>
    <path class="cls-21" d="M133.7,140.5s-1.1,7.9,5.3.9c0,0-4.9,10.2,1.5,6.4l-1.1,2.8-2.9-1.8-4.8-5.9,2.1-2.3h0Z"/>
    <path class="cls-22" d="M137.2,154.4s-.2,5.1,3.1.1c0,0-2.6,7.2.7,4.3l-1.7,4.2s-1.1-5.4-3-7.5l1-1.2h0Z"/>
    <path class="cls-8" d="M59.7,127.9s1.4,8.3,3.7-2.5c0,0-1.6,9.8,3.1,4.8l.2,1.8-1.7.9-1.4,2.5s-1.4-3.5-4.1-2c0,0-1-3.3.1-5.5h0Z"/>
    <path class="cls-15" d="M58.7,145.8s3.7,7.3,1.5-2.7c0,0,4.5,12.7,3.1,1.7l3.4,3.3-2.7,4.5s-2.6-1.5-5.3-2.9v-3.9c0,0,0,0,0,0Z"/>
    <path class="cls-16" d="M57.2,157.1s6.5,6.9,2.7-2c0,0,6.8,12.1,6.7,1.8l1.5,5.6s-4.2-1-8.5-1.1l-2.5-4.3h0Z"/>
    <path class="cls-10" d="M60.3,168.7s5.3,6.7,2.1-2.9c0,0,.9,1.7,2.7,2,1.8.3,7.5-1.1,3.5-4.3l3.2.3.6,2.4s-4.5,1.3-7.7,6.7h-3c0,.1-1.4-4.1-1.4-4.1h0Z"/>
    <path class="cls-13" d="M64.1,176.4s.7.3,1.6.5l2.8,3.1-.5,1-2.1-.7s1.7-.5-1.7-3.9h0Z"/>
    <path class="cls-17" d="M72.5,183.4s.5,1.7-2.2.5c0,0,4.7,2.2,4.3,3.5l2-2.9-4.1-1.1h0Z"/>
    <path class="cls-11" d="M76.6,189.3s9.1,6.2,5-1.9c0,0,6.8,12.5,6.2.3l2,.3-.7,6.5s-8.1.2-9.8-1l-2.7-4.1h0Z"/>
    <path class="cls-12" d="M90.2,189.6s3.7,6.5,4.1-.7c0,0,1.9,6.7,7.3,2.9l-2.1,3.3-3.3-1.8-2.9-.5-3.2,1.3s-1.7-2.2.1-4.5h0Z"/>
    <path class="cls-14" d="M101.5,187.5s5.7,7.8,6.7-3.4c0,0-.6,9.7,8.1.1l.5,1.3-4.6,4.7s-5.5-.4-10,2.4c0,0-1.5-3.5-.6-5.1h0Z"/>
    <path class="cls-9" d="M101.5,195.2s6.3.8,8.5-2.4c0,0-.7,2,4.3,1.4v.5c.1,0-7.4,2.6-13.2,1.2l.4-.7h0Z"/>
    <path class="cls-6" d="M114,191.8s5.7,4.7,5.7-3.5c0,0,.9,7.7,6.6-1.4v2c0,0-3.1,4.8-11.4,5.5l-.9-2.7h0Z"/>
    <path class="cls-7" d="M126.6,182s-1.6,6.4,4.6-.4c0,0-3.7,3.9-1.3,3.8l-1.5,1.3-4-1.7s2.2-3,2.2-3Z"/>
    <path class="cls-4" d="M132.2,174.1s-1.5,5.7,3.9-1.3c0,0-3.4,5,.3,2.7l.7.5-2.3,2.2s-2.2-.7-4.2-.3c0,0-.3-3.1,1.6-3.7h0Z"/>
  </g>
  <path class="cls-3" d="M95.6,81.9c-5.8-1.1-9.3-1.9-10.7-4,0,0-2.3-1.8-7.8,2.5-5.5,4.3-11.4,15.4-11.4,15.4,0,0,4.3-5.3,14.5-9.2,2.4,0,6.9.6,9.2,4.3,3.3,5.2,4.4,9.1,12.5,7.9,0,0-.5-15.8-6.4-16.9ZM95.1,95c-3.1-2-3.8-9.2-12.4-9.5,3.6-1.3,6-1.9,11.8-2.5,0,0,4.1-.2,5.3,13.9,0,0-1.3.3-4.7-1.9h0Z"/>
  <path class="cls-30" d="M83.9,78.8s-6.8.3-14.2,11.9c0,0,6.2-7,19.8-8.9,0,0-5.9-.3-5.6-2.9Z"/>
  <path class="cls-31" d="M93.7,96.1s-8.9-5.7-20.9-1c0,0,1.5-4.7,6.8-8.8h3.1c0-.1-5.2,1.7-7.5,6.4,0,0,10.4-4.1,16.7.3l1.8,3.1Z"/>
  <path class="cls-5" d="M94.3,82s1.3-8.8,4.4-12.2l1.2,1.1s-1.5-1.6-3.5,11.5l-2.1-.4h0Z"/>
  <path class="cls-28" d="M98.2,70.5s5,1,8.8,15.7c0,0,7.6-15.4,3.4-16.6,0,0-3.6,1.1-7.5.4s-4.5-.2-4.7.5h0Z"/>
  <path class="cls-29" d="M101.9,70.9c5.5,2.3,8-.1,8-.1,3,.8-2.5,12.4-2.5,12.4-2.5-9.7-5.5-12.3-5.5-12.3Z"/>
  <path class="cls-2" d="M95.5,64.6s2.2-10.1,12.6-20c0,0,.2-2-4.1-1.2-4.3.8-7.5-.1-9.9-1,0,0-7.4,8,1.4,22.2Z"/>
  <path class="cls-107" d="M95.4,61.8c-6.1-11.9-.8-18-.8-18,1.4,1.3,4.4,2.1,6.8,1.6s3.9-.7,3.9-.7c-8.9,8.8-9.9,17.1-9.9,17.1Z"/>
  <path class="cls-104" d="M107.6,43.9s7.7,2.8-.7,26.6l-3,.2s9.9-19.4,2.9-25.5l.7-1.2Z"/>
  <path class="cls-101" d="M103.3,43.8s.2-12.4-7.4-21.5-8.2-13.4-8.4-19.7c0,0-6.1,8.7-3.5,22.2,2.6,13.6,4.5,22.6,3.7,33.4l2.2,2.2s1.2-11.6-2.3-26.4-3.5-22.7-.5-28.1c0,0-1.4,5.3,5,13.4s9.9,15.7,8.9,24.6l2.2-.2h0Z"/>
  <path class="cls-103" d="M89.1,45.3s-5.9-13.7-28-16.9c0,0,14.9,6.8,25.2,29.2l3,1.6s-3-14.1-23.6-29c0,0,14.2,1.7,23.5,17.1v-2h0Z"/>
  <path class="cls-102" d="M108.2,62.5s19.5-26.3,43.2-22.5c0,0-20.9,6.4-43.1,43.3l2.8-7.8s10.9-22.4,36.7-34.9c0,0-18.9-2.6-39.5,25v-3.1c-.1,0-.1,0-.1,0Z"/>
  <path class="cls-106" d="M117,54.9s4.8-5.8,6.6-22c1.8-16.2,1.8-20.2,5.5-23.7,0,0-9.3,1.6-14.4,13.6-5.1,12-7.5,17.1-11.8,21h2.6s3.9-1.9,8.4-15.2c5-14.8,11.8-17,12.9-17.8,0,0-2.5,1.2-4.2,15.1-1.7,14-1.5,20.5-11.7,34.6l6-5.4h0Z"/>
  <path class="cls-109" d="M113,29.1s-.2-8.5-3-15.3c0,0-7.3,13.7-7.9,21.6l.4,3.4s2.6-12.4,7.1-22.2c0,0,3.1,7.7,1.6,18.8,0,0,1.9-6.3,1.9-6.3Z"/>
  <path class="cls-108" d="M115.4,70.8s16.3-9.1,33.4-2.3c0,0-10.4-1-21.1,6.8-10.7,7.8-21.5,23.4-25.8,23.5l-.6-2.2s3.1-1,14-12.5c11-11.5,19.2-15.3,27.9-16.2,0,0-13.2-3.7-29.7,5.7l1.8-2.7h0Z"/>
  <path class="cls-105" d="M106.5,82.4s-2.7,1.4-5,14l-.9-5.8s1.5-6,5.2-9.7c0,0,.7,1.6.7,1.6Z"/>
  <path class="cls-111" d="M97,98.3s-9.3-.2-13.3,4.9c0,0-1.2-6.6,2.4-10.5l2,.5s-3.5,1.7-3.5,7.3c0,0,3.2-4.2,9.3-4.3,0,0,3,2,3,2Z"/>
  <path class="cls-94" d="M118.1,82.8s14.1-7,19.4,7.6c0,0-6.7-10.2-32.4,5.9l4.8-4.8s16.5-9.9,25.4-4.1c0,0-4.1-8.7-19.2-2.9,0,0,2.1-1.8,2.1-1.8Z"/>
  <path class="cls-98" d="M117.6,88.8s9.6-3.1,14,9.2c0,0-4.1-5.3-11.8-4.2-7.7,1.2-13.3,5.4-18.6,5.1l2.2-1.8s4.3-1,9.7-3.2,11.8-2.7,15.6.4c0,0-3.2-6.7-13.2-4.4l2.1-1.1h0Z"/>
  <path class="cls-110" d="M114.2,94s6.8-1.7,9.3,6.7c0,0-4.8-4.8-20.6-2.2l5.7-2s4.8-2.1,12.7,1.7c0,0-.9-4.4-8.7-3l1.6-1.3h0Z"/>
  <polygon class="cls-99" points="93.8 61 92.7 64.1 92 62.4 93 59 93.8 61"/>
  <path class="cls-92" d="M96.5,75s-16.2-23-34.9-.5c0,0,15.7-11.1,25.1,5.5l2.7,1s-5.5-17-23-10c0,0,15.1-14.3,29.4,5.9l.7-1.8h0Z"/>
  <path class="cls-95" d="M84.9,56.1c9.1,4.2,12.9,15.5,12.9,15.5l-1.1,2.7c-4.8-15.1-14.9-18.5-23.6-20.4-8.8-1.9-12.1-3.5-12.1-3.5,4.5,9.7,9.4,6.5,21.2,14.8,1.2.8-2.6,0-3.4.3-3.3-2-3.6-2.6-7.3-4.1-11.2-4.4-13.5-14.6-13.5-14.6,4,5.1,18,5.1,27,9.3Z"/>
  <path class="cls-93" d="M103.3,44.7s6.8-6.3,8.8-13.3c0,0-.2-10.8-2.1-16.4,0,0-4.5,8.9-7.7,22.7v7.2c-.1,0,1.1-.2,1.1-.2Z"/>
  <path class="cls-97" d="M89.2,45.3v14.8c.1,0-1.8-1.8-1.8-1.8,0,0-5.5-16-24-28.8,0,0,18.1,2.2,25.8,15.7h0Z"/>
  <path class="cls-96" d="M87,93s-2.9,2.7-2.8,8.6c0,0,6.7-5.6,12.1-4.7,0,0-4-4.9-9.3-3.9h0Z"/>
  <path class="cls-100" d="M109.6,92.4s17.5-9.9,26.9-3.5c0,0-3.6-11-19.9-5.4,0,0-7,8.9-7,8.9Z"/>
</svg>