<?xml version="1.0" encoding="UTF-8"?>
<svg id="_レイヤー_1" data-name="レイヤー 1" xmlns="http://www.w3.org/2000/svg" version="1.1" viewBox="0 0 512 512">
  <defs>
    <style>
      .cls-1 {
        fill: #8c6332;
        stroke-width: 0px;
      }
    </style>
  </defs>
  <path class="cls-1" d="M511.8,328.1h0c-1.5-11.9-7.5-22.3-18-30.8-.1-.2-.3-.3-.4-.4h0l-.5-.4h-.2c0-.1-5.6-4.1-5.6-4.1h-.2c0-.1-.7-.6-.7-.6h0c-.3-.2-.5-.3-.8-.4-17.6-10.5-46.8-17.8-91.4-2.1-10.6-17.9-11.9-32.3-4.7-54.3,1.3-3.8,0-6.4-3.7-8-7.6-3.2-18.1-1.6-25.5.4-3.5.9-5.5,2.9-6.2,5.8-4.7,22-18.4,42.1-31.6,61.5l-.8,1.1c-8.1-17.3-6.5-30.6-.8-47.4,1.1-3.3.2-5.6-2.9-7.2-8.7-4.5-21.9-1.4-27.1.1-6.6,1.9-13.7,19.8-21.6,41.2-2,5.4-3.7,10-4.8,12.1-2.5,5-4.8,10.7-7.3,16.8-5.6,13.7-11.9,29.1-20.9,38.8-3.3-7.2,1.9-18.7,6.9-29.8,5.9-13.1,11.5-25.5,5.1-33.4-2.1-2.5-5.1-4.1-8.3-4.3-2.1-.2-4.2.2-6.1,1,.7-5.6.7-10.1-.9-15.5-2.4-7.7-8.5-12-16.9-11.8-19.2.6-35.5,14.9-45.8,26.8-6.8,8-22,14.1-35.3,19.5-5.3,2.2-10.3,4.2-14.4,6.2-6.7-5.6-15.1-11.3-24-17.3-25-16.8-53.3-35.8-54.3-61.6-1.4-38.1,42-65.1,79.9-84.4,28.7-14.6,53.7-24.3,76.3-29.6,31.8-7.4,58.7-5.9,79.8,4.4,11.6,5.7,17,18,13.6,30.7-9,32.9-46.3,55.5-78.2,65.7-19.2,6.1-35.6,8.7-50,7.8-18.1-1.1-32.9-10.1-39.2-14-1-.7-2.1-1.3-3.2-1.8h-.3c-1.2-.4-2.4,0-3.2.9-1.3,1.6-.8,4-.4,5.2,6.2,16.1,18.9,26.2,37.7,30.2,6.2,1.2,12.5,1.8,18.8,1.8,44.2,0,100.6-25.5,121.3-46.5,14.1-14.3,24.4-29,28.7-54.4,4.5-26.6-13.5-45-31.9-53.5-44.6-20.6-95.2-12.4-129.8-2-40.5,12.2-82.4,34.4-114.9,60.9C6.8,184.4-7.7,214.7,3.8,241.9c11.8,27.9,40.6,45.4,68.5,62.3,9,5.5,17.6,10.6,25.3,16-2.3,1.1-4.7,2.3-7.1,3.4-23.4,11.3-49.9,24.1-64.6,45.2-10.7,15.4-12.7,30.6-5.9,45.4,3.6,7.9,10,13.2,18.9,15.9,4.6,1.3,9.4,1.9,14.2,1.9,17.3,0,36.4-7,46.7-13.5,18.3-11.5,30.2-26.9,35.3-45.9,4.5-16.9,3.4-33.6-3.1-48.6l22.4-11.3c-10.8,36-2.5,57.5,6.6,69.4,3.4,4.4,9.4,7,16.2,7.1s13-2.4,16.5-6.8c6.7-8.2,11.6-17.9,16.1-27.5-.2,6.3,0,12.7,2.2,18.1,1.9,4.9,5.1,8.1,9.2,9.3,4.4,1.3,9.5.2,14.4-3.1,22.2-15.2,37.3-51.6,49.5-80.9,1.7-4.2,3.4-8.2,5-11.9,3,10.8,7.2,21.2,12.5,31.1,1.2,2.1,1.1,3.1-.5,4.8-2.4,2.6-5.8,5.8-9.3,9.2-10.8,10.2-24.2,23-26,34.2-.7,4.5,2.4,8.6,7.2,9.5,14.5,2.9,31.9-1.3,46.6-11.2,13.4-9,18.4-21.5,15-37.2-3.3-15.1,4.3-33.8,22.6-55.6,3,12.5,7,22.7,12.5,31.5h-.1c-13.3,11.8-31.6,27.7-28.8,47.1.5,3.7,2.5,7.1,5.6,9.2,3.3,2.2,7.3,3,11.2,2.1,17.5-3.7,30.6-11.1,40.2-22.6s6.1-24.3,2.9-34.2c25-6.8,47.3-6.6,68.1.5,11.7,4,20.1,10.6,24.9,19.6,6.1,11.4,2.8,21.9-9.3,29.6-3.7,2.4-5.5,3.8-5.6,5.6,0,.9.3,1.7,1,2.2,1.4,1.1,5.7,3.1,15.5-3,9-5.6,14.3-13.3,15.6-23,.3-2.7.3-5.3,0-8ZM112.1,353.1v1.3c-1.7,14.6-9.1,27.4-22.2,38-8.3,6.7-17.2,10.8-25.2,11.5-5.6.5-9.7-.2-12.1-2.3-1.8-1.5-2.8-3.8-3-7-1.6-25.5,38.3-50.8,60.8-59.1,1.6,5.7,2.2,11.7,1.8,17.6ZM214.4,281.3h0c-3.7,21.1-14.5,60.9-31.4,76.4-.8.7-1.5,1-1.8.9s-.6-.4-.8-1c-5.7-13.1-3.6-35.3,5-52.7,6.6-13.4,16-22.3,26.5-25,.4-.1.9-.2,1.3-.2.4,0,.7,0,1,.3.3.4.3.9.2,1.3ZM297.9,358.1c-3.2,3.3-7.6,2.9-6.5,1.7l16.2-17.2c-1.3,5.9-5.2,10.8-9.7,15.6h0ZM365.3,343.2c-1.5.8-3.2,1.2-4.9,1.4-.5-9.1,8.3-19.3,17-26.1,2.3,9.5-2.4,19.5-12.1,24.7h0Z"/>
</svg>