<?xml version="1.0" encoding="UTF-8"?>
<svg xmlns="http://www.w3.org/2000/svg" xmlns:xlink="http://www.w3.org/1999/xlink" version="1.1" viewBox="0 0 867.8 154.2">
  <defs>
    <style>
      .cls-1 {
        fill: url(#_名称未設定グラデーション_10);
      }

      .cls-1, .cls-2, .cls-3, .cls-4, .cls-5, .cls-6, .cls-7, .cls-8, .cls-9, .cls-10, .cls-11, .cls-12 {
        stroke-width: 0px;
      }

      .cls-2 {
        fill: url(#_名称未設定グラデーション_11);
      }

      .cls-3 {
        fill: url(#_名称未設定グラデーション_12);
      }

      .cls-13 {
        fill: #000;
        stroke: #fff;
        stroke-linecap: round;
        stroke-linejoin: round;
        stroke-width: 17px;
      }

      .cls-4 {
        fill: url(#_名称未設定グラデーション);
      }

      .cls-5 {
        fill: url(#_名称未設定グラデーション_6);
      }

      .cls-6 {
        fill: url(#_名称未設定グラデーション_7);
      }

      .cls-7 {
        fill: url(#_名称未設定グラデーション_8);
      }

      .cls-8 {
        fill: url(#_名称未設定グラデーション_2);
      }

      .cls-9 {
        fill: url(#_名称未設定グラデーション_9);
      }

      .cls-10 {
        fill: url(#_名称未設定グラデーション_5);
      }

      .cls-11 {
        fill: url(#_名称未設定グラデーション_4);
      }

      .cls-12 {
        fill: url(#_名称未設定グラデーション_3);
      }
    </style>
    <linearGradient id="_名称未設定グラデーション" data-name="名称未設定グラデーション" x1="0" y1="96.6" x2="867.8" y2="96.6" gradientTransform="translate(0 156) scale(1 -1)" gradientUnits="userSpaceOnUse">
      <stop offset="0" stop-color="#804e00"/>
      <stop offset="0" stop-color="#855506"/>
      <stop offset=".2" stop-color="#946817"/>
      <stop offset=".2" stop-color="#ac8833"/>
      <stop offset=".3" stop-color="#c2a54c"/>
      <stop offset=".5" stop-color="#b0923f"/>
      <stop offset=".6" stop-color="#a17d2b"/>
      <stop offset=".7" stop-color="#8f6313"/>
      <stop offset=".7" stop-color="#835305"/>
      <stop offset=".8" stop-color="#804e00"/>
      <stop offset=".8" stop-color="#855506"/>
      <stop offset=".9" stop-color="#926818"/>
      <stop offset="1" stop-color="#a98836"/>
      <stop offset="1" stop-color="#b0923f"/>
    </linearGradient>
    <linearGradient id="_名称未設定グラデーション_2" data-name="名称未設定グラデーション 2" x1="0" y1="60.3" x2="867.8" y2="60.3" gradientTransform="translate(0 156) scale(1 -1)" gradientUnits="userSpaceOnUse">
      <stop offset="0" stop-color="#804e00"/>
      <stop offset="0" stop-color="#855506"/>
      <stop offset=".2" stop-color="#946817"/>
      <stop offset=".2" stop-color="#ac8833"/>
      <stop offset=".3" stop-color="#c2a54c"/>
      <stop offset=".5" stop-color="#b0923f"/>
      <stop offset=".6" stop-color="#a17d2b"/>
      <stop offset=".7" stop-color="#8f6313"/>
      <stop offset=".7" stop-color="#835305"/>
      <stop offset=".8" stop-color="#804e00"/>
      <stop offset=".8" stop-color="#855506"/>
      <stop offset=".9" stop-color="#926818"/>
      <stop offset="1" stop-color="#a98836"/>
      <stop offset="1" stop-color="#b0923f"/>
    </linearGradient>
    <linearGradient id="_名称未設定グラデーション_3" data-name="名称未設定グラデーション 3" x1="0" y1="79.8" x2="867.8" y2="79.8" gradientTransform="translate(0 156) scale(1 -1)" gradientUnits="userSpaceOnUse">
      <stop offset="0" stop-color="#804e00"/>
      <stop offset="0" stop-color="#855506"/>
      <stop offset=".2" stop-color="#946817"/>
      <stop offset=".2" stop-color="#ac8833"/>
      <stop offset=".3" stop-color="#c2a54c"/>
      <stop offset=".5" stop-color="#b0923f"/>
      <stop offset=".6" stop-color="#a17d2b"/>
      <stop offset=".7" stop-color="#8f6313"/>
      <stop offset=".7" stop-color="#835305"/>
      <stop offset=".8" stop-color="#804e00"/>
      <stop offset=".8" stop-color="#855506"/>
      <stop offset=".9" stop-color="#926818"/>
      <stop offset="1" stop-color="#a98836"/>
      <stop offset="1" stop-color="#b0923f"/>
    </linearGradient>
    <linearGradient id="_名称未設定グラデーション_4" data-name="名称未設定グラデーション 4" x1="0" y1="78.7" x2="867.8" y2="78.7" gradientTransform="translate(0 156) scale(1 -1)" gradientUnits="userSpaceOnUse">
      <stop offset="0" stop-color="#804e00"/>
      <stop offset="0" stop-color="#855506"/>
      <stop offset=".2" stop-color="#946817"/>
      <stop offset=".2" stop-color="#ac8833"/>
      <stop offset=".3" stop-color="#c2a54c"/>
      <stop offset=".5" stop-color="#b0923f"/>
      <stop offset=".6" stop-color="#a17d2b"/>
      <stop offset=".7" stop-color="#8f6313"/>
      <stop offset=".7" stop-color="#835305"/>
      <stop offset=".8" stop-color="#804e00"/>
      <stop offset=".8" stop-color="#855506"/>
      <stop offset=".9" stop-color="#926818"/>
      <stop offset="1" stop-color="#a98836"/>
      <stop offset="1" stop-color="#b0923f"/>
    </linearGradient>
    <linearGradient id="_名称未設定グラデーション_5" data-name="名称未設定グラデーション 5" x1="0" y1="98.2" x2="867.8" y2="98.2" gradientTransform="translate(0 156) scale(1 -1)" gradientUnits="userSpaceOnUse">
      <stop offset="0" stop-color="#804e00"/>
      <stop offset="0" stop-color="#855506"/>
      <stop offset=".2" stop-color="#946817"/>
      <stop offset=".2" stop-color="#ac8833"/>
      <stop offset=".3" stop-color="#c2a54c"/>
      <stop offset=".5" stop-color="#b0923f"/>
      <stop offset=".6" stop-color="#a17d2b"/>
      <stop offset=".7" stop-color="#8f6313"/>
      <stop offset=".7" stop-color="#835305"/>
      <stop offset=".8" stop-color="#804e00"/>
      <stop offset=".8" stop-color="#855506"/>
      <stop offset=".9" stop-color="#926818"/>
      <stop offset="1" stop-color="#a98836"/>
      <stop offset="1" stop-color="#b0923f"/>
    </linearGradient>
    <linearGradient id="_名称未設定グラデーション_6" data-name="名称未設定グラデーション 6" x1="0" y1="78.7" x2="867.8" y2="78.7" gradientTransform="translate(0 156) scale(1 -1)" gradientUnits="userSpaceOnUse">
      <stop offset="0" stop-color="#804e00"/>
      <stop offset="0" stop-color="#855506"/>
      <stop offset=".2" stop-color="#946817"/>
      <stop offset=".2" stop-color="#ac8833"/>
      <stop offset=".3" stop-color="#c2a54c"/>
      <stop offset=".5" stop-color="#b0923f"/>
      <stop offset=".6" stop-color="#a17d2b"/>
      <stop offset=".7" stop-color="#8f6313"/>
      <stop offset=".7" stop-color="#835305"/>
      <stop offset=".8" stop-color="#804e00"/>
      <stop offset=".8" stop-color="#855506"/>
      <stop offset=".9" stop-color="#926818"/>
      <stop offset="1" stop-color="#a98836"/>
      <stop offset="1" stop-color="#b0923f"/>
    </linearGradient>
    <linearGradient id="_名称未設定グラデーション_7" data-name="名称未設定グラデーション 7" x1="0" y1="96.5" x2="867.8" y2="96.5" gradientTransform="translate(0 156) scale(1 -1)" gradientUnits="userSpaceOnUse">
      <stop offset="0" stop-color="#804e00"/>
      <stop offset="0" stop-color="#855506"/>
      <stop offset=".2" stop-color="#946817"/>
      <stop offset=".2" stop-color="#ac8833"/>
      <stop offset=".3" stop-color="#c2a54c"/>
      <stop offset=".5" stop-color="#b0923f"/>
      <stop offset=".6" stop-color="#a17d2b"/>
      <stop offset=".7" stop-color="#8f6313"/>
      <stop offset=".7" stop-color="#835305"/>
      <stop offset=".8" stop-color="#804e00"/>
      <stop offset=".8" stop-color="#855506"/>
      <stop offset=".9" stop-color="#926818"/>
      <stop offset="1" stop-color="#a98836"/>
      <stop offset="1" stop-color="#b0923f"/>
    </linearGradient>
    <linearGradient id="_名称未設定グラデーション_8" data-name="名称未設定グラデーション 8" x1="0" y1="79" x2="867.8" y2="79" gradientTransform="translate(0 156) scale(1 -1)" gradientUnits="userSpaceOnUse">
      <stop offset="0" stop-color="#804e00"/>
      <stop offset="0" stop-color="#855506"/>
      <stop offset=".2" stop-color="#946817"/>
      <stop offset=".2" stop-color="#ac8833"/>
      <stop offset=".3" stop-color="#c2a54c"/>
      <stop offset=".5" stop-color="#b0923f"/>
      <stop offset=".6" stop-color="#a17d2b"/>
      <stop offset=".7" stop-color="#8f6313"/>
      <stop offset=".7" stop-color="#835305"/>
      <stop offset=".8" stop-color="#804e00"/>
      <stop offset=".8" stop-color="#855506"/>
      <stop offset=".9" stop-color="#926818"/>
      <stop offset="1" stop-color="#a98836"/>
      <stop offset="1" stop-color="#b0923f"/>
    </linearGradient>
    <linearGradient id="_名称未設定グラデーション_9" data-name="名称未設定グラデーション 9" x1="0" y1="78.1" x2="867.8" y2="78.1" gradientTransform="translate(0 156) scale(1 -1)" gradientUnits="userSpaceOnUse">
      <stop offset="0" stop-color="#804e00"/>
      <stop offset="0" stop-color="#855506"/>
      <stop offset=".2" stop-color="#946817"/>
      <stop offset=".2" stop-color="#ac8833"/>
      <stop offset=".3" stop-color="#c2a54c"/>
      <stop offset=".5" stop-color="#b0923f"/>
      <stop offset=".6" stop-color="#a17d2b"/>
      <stop offset=".7" stop-color="#8f6313"/>
      <stop offset=".7" stop-color="#835305"/>
      <stop offset=".8" stop-color="#804e00"/>
      <stop offset=".8" stop-color="#855506"/>
      <stop offset=".9" stop-color="#926818"/>
      <stop offset="1" stop-color="#a98836"/>
      <stop offset="1" stop-color="#b0923f"/>
    </linearGradient>
    <linearGradient id="_名称未設定グラデーション_10" data-name="名称未設定グラデーション 10" x1="0" y1="93" x2="867.8" y2="93" gradientTransform="translate(0 156) scale(1 -1)" gradientUnits="userSpaceOnUse">
      <stop offset="0" stop-color="#804e00"/>
      <stop offset="0" stop-color="#855506"/>
      <stop offset=".2" stop-color="#946817"/>
      <stop offset=".2" stop-color="#ac8833"/>
      <stop offset=".3" stop-color="#c2a54c"/>
      <stop offset=".5" stop-color="#b0923f"/>
      <stop offset=".6" stop-color="#a17d2b"/>
      <stop offset=".7" stop-color="#8f6313"/>
      <stop offset=".7" stop-color="#835305"/>
      <stop offset=".8" stop-color="#804e00"/>
      <stop offset=".8" stop-color="#855506"/>
      <stop offset=".9" stop-color="#926818"/>
      <stop offset="1" stop-color="#a98836"/>
      <stop offset="1" stop-color="#b0923f"/>
    </linearGradient>
    <linearGradient id="_名称未設定グラデーション_11" data-name="名称未設定グラデーション 11" x1="0" y1="69.8" x2="867.8" y2="69.8" gradientTransform="translate(0 156) scale(1 -1)" gradientUnits="userSpaceOnUse">
      <stop offset="0" stop-color="#804e00"/>
      <stop offset="0" stop-color="#855506"/>
      <stop offset=".2" stop-color="#946817"/>
      <stop offset=".2" stop-color="#ac8833"/>
      <stop offset=".3" stop-color="#c2a54c"/>
      <stop offset=".5" stop-color="#b0923f"/>
      <stop offset=".6" stop-color="#a17d2b"/>
      <stop offset=".7" stop-color="#8f6313"/>
      <stop offset=".7" stop-color="#835305"/>
      <stop offset=".8" stop-color="#804e00"/>
      <stop offset=".8" stop-color="#855506"/>
      <stop offset=".9" stop-color="#926818"/>
      <stop offset="1" stop-color="#a98836"/>
      <stop offset="1" stop-color="#b0923f"/>
    </linearGradient>
    <linearGradient id="_名称未設定グラデーション_12" data-name="名称未設定グラデーション 12" x1="0" y1="79.4" x2="867.8" y2="79.4" gradientTransform="translate(0 156) scale(1 -1)" gradientUnits="userSpaceOnUse">
      <stop offset="0" stop-color="#804e00"/>
      <stop offset="0" stop-color="#855506"/>
      <stop offset=".2" stop-color="#946817"/>
      <stop offset=".2" stop-color="#ac8833"/>
      <stop offset=".3" stop-color="#c2a54c"/>
      <stop offset=".5" stop-color="#b0923f"/>
      <stop offset=".6" stop-color="#a17d2b"/>
      <stop offset=".7" stop-color="#8f6313"/>
      <stop offset=".7" stop-color="#835305"/>
      <stop offset=".8" stop-color="#804e00"/>
      <stop offset=".8" stop-color="#855506"/>
      <stop offset=".9" stop-color="#926818"/>
      <stop offset="1" stop-color="#a98836"/>
      <stop offset="1" stop-color="#b0923f"/>
    </linearGradient>
  </defs>
  <g id="_レイヤー_2" data-name=" レイヤー 2">
    <g id="_レイヤー_1-2" data-name=" レイヤー 1-2">
      <g>
        <path class="cls-4" d="M18.7,4.6c-.3,0-.7.2-1.1.5s-.8.9-1.2,1.8c-.4.8-.7,2.1-1,3.7s-.5,3.7-.5,6.4v84.8c0,2.6.2,4.7.5,6.3s.7,2.9,1,3.8c.4.9.8,1.4,1.2,1.8s.8.5,1.1.5v1.4H0v-1.4c.2,0,.5-.2,1-.5.4-.3.8-.9,1.2-1.8.4-.8.7-2.1,1-3.8s.5-3.8.5-6.3V17c0-2.7-.2-4.8-.5-6.4-.3-1.6-.7-2.8-1-3.7-.4-.8-.8-1.4-1.2-1.8C.5,4.8.2,4.6,0,4.6v-1.4h18.7v1.4Z"/>
        <path class="cls-8" d="M42.6,81.6c.8-5.3,1.8-10.2,3.2-14.6,1.4-4.4,3-8.3,5-11.8,3.2-6.2,7-10.7,11.5-13.4.4-.3,1.1-.7,1.9-1.1,2.8-1.7,5.7-2.8,8.8-3.2,3.1-.4,6.2-.4,9.4.2,5.5,1,10.1,2.8,13.7,5.4,3.6,2.7,6.3,5.9,8.2,9.7,1.9,3.8,2.9,7.9,3.2,12.3.3,4.4-.1,8.9-1.1,13.4-1,4.5-2.7,8.9-5,13.2-2.3,4.3-5,8.1-8.2,11.4-3.9,4.1-8.6,7.3-13.8,9.8-5.3,2.5-11.2,3.8-17.7,3.8s-5.7-.3-8.9-.9c-3.2-.6-6.5-1.6-10.2-3.1v27.7c.4,2.8,1,4.6,1.8,5.4.7.9,1.3,1.3,1.6,1.3l.6,1.4-15.2,5.8V52.3c0-2.7-.2-4.8-.5-6.4s-.7-2.8-1-3.7c-.4-.8-.8-1.4-1.2-1.8-.4-.3-.8-.5-1-.5v-1.4h14.9s0,43,0,43ZM42.6,111.4c6.7,2.7,13.1,4,19.2,4,5.7-.2,10.6-1.7,14.7-4.4,4.2-2.7,7.6-6.5,10.2-11.4,2-3.5,3.6-7.8,4.7-12.7s1.7-10,1.6-15.1-.8-10-2.1-14.6-3.5-8.5-6.5-11.4c-2.8-2.8-5.8-4.6-9.2-5.4-3.4-.8-6.9-.4-10.5,1.4-2,1.2-3.9,2.6-5.5,4.2s-3.2,3.5-4.7,5.7c-2.7,4-4.8,8.4-6.6,13.3-1.7,4.9-3,9.9-3.8,14.9l-1,6.9c-.3,3.4-.5,6.9-.5,10.6h-.2v14.2h0Z"/>
        <path class="cls-12" d="M117,86.2c-1.4-5.2-1.7-10.4-1-15.5.8-5.1,2.4-9.8,4.9-14.2,2.5-4.3,5.8-8.1,9.8-11.3s8.7-5.5,13.9-6.9c5.2-1.4,10.4-1.7,15.5-1,5.1.8,9.9,2.4,14.2,4.9,4.4,2.5,8.2,5.8,11.4,9.8s5.5,8.7,6.9,13.9c1.4,5.2,1.7,10.4,1,15.5s-2.4,9.8-4.9,14.2c-2.5,4.3-5.8,8.1-9.8,11.3s-8.7,5.5-13.9,6.9c-5.2,1.4-10.4,1.7-15.5,1s-9.9-2.4-14.2-4.9c-4.4-2.5-8.2-5.8-11.4-9.8s-5.5-8.7-6.9-13.9h0ZM181.8,69c-1.1-3.8-2.7-7.8-5-11.8s-5-7.5-8.2-10.6-6.8-5.3-10.9-6.7c-4.1-1.4-8.3-1.6-12.8-.4-4.5,1.2-8.1,3.4-10.8,6.6s-4.7,7-6,11.2-1.9,8.6-1.9,13.3.5,8.9,1.6,12.7c1.1,3.8,2.7,7.8,5,11.8,2.2,4.1,5,7.6,8.2,10.6,3.2,3,6.8,5.2,10.9,6.7,4.1,1.5,8.3,1.6,12.8.3,4.5-1.2,8.1-3.4,10.9-6.6,2.8-3.2,4.8-7,6.1-11.2s1.9-8.6,1.8-13.3-.6-8.9-1.7-12.7Z"/>
        <path class="cls-11" d="M270.1,115.5h-14.9v-41.3c-.8,4.8-1.7,9.2-2.7,13.1-1.1,3.9-2.3,7.5-3.7,10.6-1.1,2.2-2.3,4.4-3.7,6.6-1.4,2.1-3,4.1-4.9,5.8-1.9,1.8-3.9,3.2-6.1,4.2s-4.6,1.6-7.3,1.6c-4.4,0-7.9-.9-10.6-2.7s-4.9-4.2-6.4-7c-1.6-2.9-2.6-6.1-3.2-9.8-.6-3.6-.9-7.2-.9-10.9v-33.6c0-2.7-.2-4.8-.5-6.4-.3-1.6-.7-2.8-1-3.7-.4-.8-.8-1.4-1.2-1.8-.4-.3-.8-.5-1-.5v-1.4h14.9v47.4c0,1.9.1,4.2.3,7,.2,2.7.7,5.4,1.4,8,.7,2.6,1.7,5,3,7.1,1.3,2.1,3.1,3.6,5.4,4.3,2.2.8,4.4.8,6.6,0,2.1-.8,4.1-1.9,5.8-3.5s3.3-3.4,4.7-5.4c1.4-2,2.5-3.9,3.4-5.8,2.3-5.1,4.2-11.4,5.6-18.8,1.4-7.4,2.1-16.2,2.1-26.5s-.2-4.8-.5-6.4-.7-2.8-1-3.7c-.4-.8-.8-1.4-1.2-1.8s-.8-.5-1-.5v-1.4h14.9v63.4c0,2.7.1,4.8.4,6.4s.6,2.8,1,3.8c.4.9.9,1.5,1.3,1.8.4.3.7.4,1,.4v1.4h0Z"/>
        <path class="cls-10" d="M296.6,115.5h-18.6v-1.4c.2,0,.5-.1,1-.4.4-.3.8-.8,1.2-1.8.4-.9.7-2.2,1-3.8s.5-3.7.5-6.4V13.8c-.4-2.8-1-4.6-1.7-5.4-.7-.8-1.2-1.3-1.7-1.3l-.5-1.4,15-5.6v101.8c0,2.7.1,4.8.4,6.4.3,1.6.6,2.8,1,3.8.4.9.9,1.5,1.3,1.8.4.3.8.4,1,.4v1.4h0Z"/>
        <path class="cls-5" d="M372.6,115.5h-14.9v-41.3c-.8,4.8-1.7,9.2-2.7,13.1-1.1,3.9-2.3,7.5-3.7,10.6-1.1,2.2-2.3,4.4-3.7,6.6-1.4,2.1-3,4.1-4.9,5.8-1.9,1.8-3.9,3.2-6.1,4.2-2.2,1.1-4.6,1.6-7.3,1.6-4.4,0-7.9-.9-10.6-2.7s-4.9-4.2-6.4-7c-1.5-2.9-2.6-6.1-3.2-9.8-.6-3.6-.9-7.2-.9-10.9v-33.6c0-2.7-.2-4.8-.5-6.4-.3-1.6-.7-2.8-1-3.7-.4-.8-.8-1.4-1.2-1.8-.4-.3-.8-.5-1-.5v-1.4h14.9v47.4c0,1.9.1,4.2.3,7,.2,2.7.7,5.4,1.4,8,.7,2.6,1.7,5,3,7.1,1.3,2.1,3.1,3.6,5.4,4.3,2.2.8,4.4.8,6.6,0,2.1-.8,4.1-1.9,5.8-3.5s3.3-3.4,4.7-5.4c1.4-2,2.5-3.9,3.4-5.8,2.3-5.1,4.2-11.4,5.6-18.8,1.4-7.4,2.1-16.2,2.1-26.5s-.2-4.8-.5-6.4c-.3-1.6-.7-2.8-1-3.7-.4-.8-.8-1.4-1.2-1.8-.4-.3-.8-.5-1-.5v-1.4h14.9v63.4c0,2.7.1,4.8.4,6.4s.6,2.8,1,3.8c.4.9.9,1.5,1.3,1.8.4.3.8.4,1,.4v1.4h0Z"/>
        <path class="cls-6" d="M417,3.2h14.9l.2,17c1.8-5.3,5.1-9.5,9.8-12.6,4.8-3.1,10.2-5,16.2-5.6,6.1-.6,12.4,0,19,2,6.6,2,12.6,5.3,18.1,10,5.5,4.7,10,10.8,13.5,18.3,3.5,7.5,5.3,16.6,5.3,27.1s-1.7,19.2-5,26.6c-3.4,7.4-8,13.4-14,18s-13,8-21.1,10.2c-8.1,2.1-16.9,3.2-26.4,3.2s-9.5-.3-14.4-.8c-4.9-.5-9.8-.8-14.6-1h-1.4v-1.4c.2,0,.5-.2,1-.5.4-.3.8-.9,1.2-1.8.4-.8.7-2.1,1-3.8s.5-3.8.5-6.3V17c0-2.7-.2-4.8-.5-6.4-.3-1.6-.7-2.8-1-3.7-.4-.8-.8-1.4-1.2-1.8-.4-.3-.8-.5-1-.5v-1.4h0ZM502.7,59.4c0-11-1.7-20.3-5.2-27.8-3.5-7.6-7.9-13.5-13.1-17.8s-11-7.1-17.1-8.4c-6.1-1.3-11.8-1.2-17.1.2-5.3,1.4-9.7,4.2-13.1,8.2-3.5,4-5.2,9.1-5.2,15.4v85.8c2.7.2,5.3.4,7.9.6,2.6.2,5.1.3,7.5.3,8.8,0,16.6-1.3,23.4-3.9,6.8-2.6,12.6-6.3,17.4-11.2,4.8-4.8,8.4-10.8,10.9-17.8,2.5-7,3.8-14.8,3.8-23.6h0Z"/>
        <path class="cls-7" d="M524.2,87.2c-1.4-5.2-1.7-10.4-1-15.5.7-5.1,2.4-9.8,4.9-14.2,2.5-4.3,5.8-8.1,9.8-11.3,4-3.2,8.7-5.5,13.9-6.9,5.5-1.5,10.9-1.8,16-1s9.8,2.4,13.9,4.7c4.2,2.3,7.7,5.3,10.7,9,3,3.6,5.1,7.6,6.4,11.8-3.8,0-8,.2-12.4.5-4.4.3-8.5.9-12.1,1.8,3-.1,5.7.4,8.2,1.5,2.5,1.1,4.7,2.6,6.5,4.6s3.2,4.2,4.3,6.7,1.7,5.2,1.9,8c.4,5.8-.8,10.8-3.6,15-2.8,4.2-6.6,7.5-11.2,9.9s-9.8,3.8-15.6,4.2c-5.8.4-11.3-.4-16.7-2.3-5.4-1.9-10.3-5-14.6-9.4-4.4-4.3-7.5-10-9.4-17h0ZM586.5,63c-1.5-3.4-3.4-6.7-5.8-9.8-2.3-3.1-5-5.8-7.9-8.1-2.9-2.2-6.2-3.8-9.7-4.8s-7.2-.9-11,.2c-3.6,1-6.7,2.6-9.1,5-2.5,2.3-4.4,5.1-5.8,8.2-1.4,3.1-2.5,6.5-3,10.1-.6,3.6-.8,7.2-.6,10.7,1.8.9,4,1.4,6.4,1.6,3,.2,6.3-.1,9.8-1,3.6-.9,7.2-2.4,11-4.6,4.5-2.6,9-4.4,13.4-5.4s8.6-1.7,12.3-1.9h0ZM533.6,75.7c.3,3.1.8,6,1.4,8.6,2,7.7,5.1,13.7,9.3,18.1,4.2,4.4,8.7,7.4,13.5,9,4.8,1.6,9.7,1.9,14.6,1,4.9-.9,9.2-2.8,12.8-5.5,3.6-2.8,6.3-6.3,7.9-10.6,1.7-4.3,1.7-9.2,0-14.5-.8-2.9-2.2-5.5-4.2-7.8s-4.3-4.1-7-5.2c-2.8-1.1-5.9-1.5-9.4-1.3-3.5.3-7.2,1.6-11.2,3.9-3.8,2.2-7.6,3.8-11.3,4.7-3.7.9-7.1,1.2-10.2,1-1.2-.1-2.3-.2-3.4-.4s-2.1-.5-3-1h0Z"/>
        <path class="cls-9" d="M662.2,67.2c0-2.2-.6-4.7-1.8-7.3-1.2-2.6-2.9-5.2-5-7.7-2.1-2.5-4.6-4.8-7.3-6.7-2.7-2-5.5-3.4-8.5-4.3-2.9-.9-5.9-1.1-8.8-.6s-5.6,2-7.9,4.4c-2.2,2.2-3.3,4.9-3.2,7.9.1,3,1.4,5.8,3.8,8.2,1.8,1.8,4.5,3.6,8.1,5.4,3.6,1.8,8.3,3.5,14.2,5,4.4,1.2,8,2.6,11,4.2s5.4,3.3,7.4,5.1c3.1,3.1,4.9,6.6,5.4,10.4.5,3.8-.3,7.7-2.4,11.5-1.1,1.8-2.3,3.5-3.8,5-1.4,1.6-3,2.8-4.7,3.8-1.7,1.2-3.6,2.2-5.7,3s-4.2,1.4-6.5,1.9c-2.2.5-4.5.8-6.7,1s-4.4.2-6.4,0c-3.8-.3-7.9-1.2-12.1-2.5-4.2-1.3-8.6-3.4-13.2-6.2l-1.3-.8,3.8-17.8,1.3.3c-.2,1,0,2.2.6,3.7s1.4,3,2.4,4.6,2,3.1,3,4.4c1.1,1.3,2,2.3,2.7,3,2.1,2.1,4.5,3.8,7,5s5.2,2.1,8,2.6c2.7.5,5.3.8,7.9.6,2.6,0,5.1-.5,7.4-1.1,1.3-.3,2.5-.7,3.5-1.2,1.1-.5,2.2-1,3.4-1.7,1.1-.8,2-1.5,2.9-2.4.8-.8,1.4-1.8,2-2.7.6-1,1-2,1.2-3,.2-1.7,0-3.2-.3-4.6-.8-2-2-3.8-3.8-5.2-1.8-1.4-3.8-2.7-6.2-3.7-2.3-1-4.9-1.9-7.6-2.6s-5.4-1.5-8.1-2.4c-5.1-1.5-9.6-3.6-13.5-6.4-3.9-2.8-6.7-5.9-8.5-9.5-1.8-3.6-2.3-7.4-1.6-11.4.7-4,3.1-8.2,7.3-12.3,2.8-2.9,6.4-4.7,11-5.4,4.5-.7,9.1-.7,13.8,0,4.6.7,8.8,2,12.6,3.8,3.8,1.9,6.4,4,7.8,6.3l-4,18.2h-.8Z"/>
        <path class="cls-1" d="M677.9,44.2l15.2-5.8v63.4c0,2.7.1,4.8.4,6.4s.6,2.8,1,3.8.8,1.5,1.3,1.8c.4.3.8.4,1,.4v1.4h-18.7v-1.4c.3,0,.7-.1,1.1-.4.4-.3.8-.8,1.2-1.8s.7-2.2,1-3.8.5-3.7.5-6.4v-49.4c-.4-2.9-1-4.8-1.8-5.6s-1.3-1.3-1.8-1.3l-.5-1.3h0ZM686.3,25.4c-2.2,0-4-.7-5.4-2.2-1.5-1.4-2.2-3.2-2.2-5.4s.7-3.9,2.2-5.4c1.5-1.4,3.3-2.2,5.4-2.2s4,.7,5.4,2.2c1.5,1.4,2.2,3.2,2.2,5.4s-.7,3.9-2.2,5.4c-1.5,1.4-3.3,2.2-5.4,2.2Z"/>
        <path class="cls-2" d="M706.1,86.2c-1.4-5.2-1.7-10.4-1-15.5.7-5.1,2.4-9.9,4.9-14.2,2.5-4.4,5.8-8.2,9.8-11.4,4-3.2,8.7-5.5,13.9-6.9,5.3-1.5,10.5-1.8,15.6-1,5.1.8,9.8,2.4,14.2,4.9l5.3-1.4c4.8-1.3,8.5-2.5,11-3.8s4.4-2.3,5.5-3.4c1.1-1,1.7-1.8,1.8-2.5.1-.6.2-1,.2-1.1v-.2l1.4-.3,1.4,5.9.3,1.4,1.4,5.9-1.4.3c-.8-1-1.9-1.7-3.5-2.1-1.4-.4-3.3-.7-5.7-.7-2.4,0-5.5.3-9.4,1.2l-6.7,1.6c4,2.6,7.4,5.8,10.2,9.7,2.9,3.9,5,8.3,6.4,13.2,1.4,5,1.7,10,1,15-.7,5-2.2,9.6-4.5,13.8-2.3,4.3-5.3,8-9.1,11.3s-8.1,5.7-13,7.3c-2.1.9-4.6,1.5-7.4,1.9-2.8.4-5.7.8-8.7,1.3-3,.4-6,.9-8.9,1.4s-5.5,1.2-7.7,2.2c-2.2,1-3.9,2.3-5,3.9-1.2,1.7-1.6,3.8-1.3,6.3.4,3,1.7,4.9,3.7,5.8,2,.9,4.5,1.2,7.3.8,2.8-.4,5.9-1.2,9.2-2.5s6.5-2.7,9.5-4.2c3-1.6,5.8-3,8.2-4.5s4.2-2.5,5.1-3.1c3.4-2.1,6.8-4.1,10.3-5.8,3.5-1.8,6.6-2.8,9.4-3.1,3.6-.4,6.3.5,8.2,2.6,1.8,2.2,2.8,4.9,2.8,8.1,0,3.2-.8,6.4-2.6,9.6s-4.3,5.6-7.6,7.2c-2.6,1.2-5.3,1.8-8.2,1.8s-5.8-.4-8.6-1.3-5.7-2.1-8.3-3.6c-2.7-1.6-5-3.3-6.9-5.2l.8-.8c5,3.9,9.7,6.7,14.1,8.2s8.1,1.3,11.2-.5c1.6-1,3-2.4,4.2-4.3,1.2-1.9,2.1-4,2.7-6.2.6-2.2.7-4.2.4-6.2-.3-1.9-1.2-3.3-2.8-4.2-1.5-.9-3.8-1-6.8-.5s-6.9,2.2-11.7,5.1c-1.7,1.1-4.1,2.5-7,4.4-3,1.9-6.3,3.8-9.9,5.7s-7.3,3.6-11.1,5.1c-3.8,1.5-7.3,2.3-10.6,2.6-3.2.2-6.1-.4-8.5-1.8-2.4-1.4-4-4-4.7-7.8-.6-3.6.2-6.5,2.5-8.5,2.3-2,5.2-3.6,8.6-4.7,3.5-1.1,7.1-1.9,10.9-2.2,3.8-.4,7-.7,9.5-1-4-.3-7.9-1.2-11.6-2.8-3.7-1.5-7-3.6-10.1-6.1-3-2.5-5.7-5.5-7.9-8.9-2.2-3.4-3.9-7.1-5-11.2h0ZM771,68.8c-1.1-3.8-2.8-7.8-5-11.8s-5-7.6-8.2-10.6c-3.2-3-6.8-5.2-10.9-6.7-4.1-1.5-8.3-1.6-12.8-.3-4.5,1.2-8.1,3.4-10.9,6.7-2.8,3.3-4.8,7.1-6.1,11.3s-1.9,8.6-1.8,13.3c0,4.6.6,8.9,1.7,12.7,1.1,3.8,2.7,7.8,5,11.8,2.2,4.1,5,7.6,8.2,10.6,3.2,3,6.8,5.2,10.9,6.7,4,1.5,8.3,1.6,12.8.3,4.5-1.2,8.1-3.4,10.9-6.7,2.8-3.3,4.8-7.1,6.1-11.3s1.9-8.6,1.9-13.3-.5-8.9-1.6-12.7Z"/>
        <path class="cls-3" d="M800,38.4h14.9l-.2,41.4c.6-4.9,1.5-9.3,2.6-13.3,1.1-3.9,2.4-7.5,3.8-10.6,1.1-2.2,2.3-4.4,3.7-6.6,1.4-2.1,3-4.1,4.9-5.8s3.9-3.2,6.1-4.2c2.2-1.1,4.6-1.6,7.3-1.6,4.4,0,7.9.9,10.6,2.7,2.7,1.8,4.8,4.2,6.4,7,1.5,2.9,2.6,6.1,3.2,9.8.6,3.6.9,7.3.9,10.9v33.6c0,2.7.1,4.8.4,6.4s.6,2.8,1,3.8.8,1.5,1.3,1.8c.4.3.8.4,1,.4v1.4h-18.6v-1.4c.2,0,.5-.1,1-.4.4-.3.8-.8,1.2-1.8s.7-2.2,1-3.8.5-3.7.5-6.4v-33.6c0-1.9-.1-4.2-.3-7s-.7-5.4-1.3-8c-.7-2.6-1.7-5-3-7.1-1.3-2.1-3.1-3.6-5.3-4.3-2.2-.8-4.4-.7-6.5,0s-4.1,2-5.8,3.6c-1.8,1.6-3.3,3.4-4.7,5.4-1.4,2-2.5,4-3.3,5.8-2.3,5.1-4.2,11.4-5.6,18.8-1.4,7.4-2.1,16.2-2.1,26.3s.1,4.8.4,6.4c.3,1.6.6,2.8,1,3.8.4.9.8,1.5,1.3,1.8.4.3.8.4,1,.4v1.4h-18.6v-1.4c.2,0,.5-.1,1-.4.4-.3.8-.8,1.2-1.8s.7-2.2,1-3.8.5-3.7.5-6.4v-49.6c0-2.6-.2-4.7-.5-6.3s-.7-2.9-1-3.8c-.4-.8-.8-1.4-1.2-1.8-.4-.3-.8-.5-1-.5v-1.4h0Z"/>
      </g>
    </g>
  </g>
  <g id="mask">
    <line class="cls-13" x1="9.4" y1="1.7" x2="9.4" y2="117.3"/>
    <line class="cls-13" x1="37.5" y1="39.8" x2="37.5" y2="151.9"/>
    <path class="cls-13" d="M42.6,76.6s62.8-83.8,55.2,0-55.2,30-55.2,30"/>
    <path class="cls-13" d="M117,86.2s14.8-91.7,66.5-26.1c6.7,91.8-66.5,26.1-66.5,26.1Z"/>
    <path class="cls-13" d="M208.1,38.7s9.4,179.2,50.9,1v73.1"/>
    <line class="cls-13" x1="284.4" y1="3.2" x2="284.4" y2="113.7"/>
    <path class="cls-13" d="M309.9,39.8s8.5,166.8,52.8,5.6c1.5-16,0,67.5,0,67.5"/>
    <line class="cls-13" x1="423" y1="4.4" x2="423" y2="113.7"/>
    <path class="cls-13" d="M431.8,29.1s68-76.5,75,38.2-75,47.5-75,47.5"/>
    <path class="cls-13" d="M533.5,78.7l60.9-14.8c-5.3-14.6-19-23.2-42.6-24.5-21.1,11.3-25.2,32.3-24.2,56.3,36.5,25.3,58.7,21.4,65.7-13.9"/>
    <path class="cls-13" d="M660.5,50.1c-5.7-32.2-30.4-26.9-46.2,0,1.9,32.8,32.3,9.5,46.2,40,0,31.9-31.3,44.6-47.9,4.1"/>
    <line class="cls-13" x1="686.3" y1="39.8" x2="686.3" y2="115.3"/>
    <line class="cls-13" x1="680.9" y1="12.6" x2="691.7" y2="23.3"/>
    <path class="cls-13" d="M765.3,43l25-7.7c-34.7-1.8-65.3,1-80.2,21.1l5.3,46.4,33.6,12.3,31.7-25.1-5.3-37.7,10.6,51.4-67.3,20.1,3.8,17.4,46-21.6,19.8-3.5.2,17.7-13.5,5.8-22-5.2"/>
    <path class="cls-13" d="M808.5,37.1v78.2c8-58.8,21.6-90.7,45.2-74.8l6.7,68.5"/>
  </g>
</svg>