<?xml version="1.0" encoding="UTF-8"?>
<svg id="_レイヤー_2" data-name="レイヤー 2" xmlns="http://www.w3.org/2000/svg" xmlns:xlink="http://www.w3.org/1999/xlink" viewBox="0 0 867.82 154.24">
  <defs>
    <style>
      .cls-1 {
        fill: url(#_名称未設定グラデーション_6);
        stroke-width: 0px;
      }
    </style>
    <linearGradient id="_名称未設定グラデーション_6" data-name="名称未設定グラデーション 6" x1="0" y1="77.12" x2="867.82" y2="77.12" gradientUnits="userSpaceOnUse">
      <stop offset="0" stop-color="#804e00"/>
      <stop offset=".06" stop-color="#855506"/>
      <stop offset=".15" stop-color="#946817"/>
      <stop offset=".25" stop-color="#ac8833"/>
      <stop offset=".33" stop-color="#c2a54c"/>
      <stop offset=".52" stop-color="#b0923f"/>
      <stop offset=".57" stop-color="#a17d2b"/>
      <stop offset=".65" stop-color="#8f6313"/>
      <stop offset=".72" stop-color="#835305"/>
      <stop offset=".77" stop-color="#804e00"/>
      <stop offset=".82" stop-color="#855506"/>
      <stop offset=".89" stop-color="#926818"/>
      <stop offset=".98" stop-color="#a98836"/>
      <stop offset="1" stop-color="#b0923f"/>
    </linearGradient>
  </defs>
  <g id="_レイヤー_1-2" data-name="レイヤー 1">
    <g>
      <path class="cls-1" d="M18.72,4.64c-.32,0-.69.16-1.12.48-.43.32-.83.91-1.2,1.76-.38.85-.72,2.08-1.04,3.68-.32,1.6-.48,3.74-.48,6.4v84.8c0,2.56.16,4.67.48,6.32.32,1.65.67,2.91,1.04,3.76.37.86.77,1.44,1.2,1.76.43.32.8.48,1.12.48v1.44H0v-1.44c.21,0,.53-.16.96-.48.42-.32.83-.9,1.2-1.76.37-.85.72-2.11,1.04-3.76.32-1.65.48-3.76.48-6.32V16.96c0-2.67-.16-4.8-.48-6.4-.32-1.6-.67-2.83-1.04-3.68-.38-.85-.78-1.44-1.2-1.76-.43-.32-.75-.48-.96-.48v-1.44h18.72v1.44Z"/>
      <path class="cls-1" d="M42.56,81.6c.75-5.33,1.81-10.18,3.2-14.56,1.38-4.37,3.04-8.32,4.96-11.84,3.2-6.18,7.04-10.66,11.52-13.44.42-.32,1.06-.69,1.92-1.12,2.77-1.71,5.71-2.77,8.8-3.2,3.09-.42,6.24-.37,9.44.16,5.54.96,10.1,2.78,13.68,5.44,3.57,2.67,6.29,5.89,8.16,9.68,1.86,3.79,2.93,7.9,3.2,12.32.27,4.43-.11,8.91-1.12,13.44-1.02,4.54-2.67,8.94-4.96,13.2-2.3,4.27-5.04,8.05-8.24,11.36-3.95,4.05-8.56,7.33-13.84,9.84-5.28,2.51-11.18,3.76-17.68,3.76-2.77,0-5.73-.29-8.88-.88-3.15-.58-6.54-1.62-10.16-3.12v27.68c.43,2.77,1.01,4.58,1.76,5.44.74.85,1.28,1.28,1.6,1.28l.64,1.44-15.2,5.76V52.32c0-2.67-.16-4.8-.48-6.4s-.67-2.83-1.04-3.68c-.38-.85-.78-1.44-1.2-1.76-.43-.32-.75-.48-.96-.48v-1.44h14.88v43.04ZM42.56,111.36c6.72,2.67,13.12,4,19.2,4,5.65-.21,10.56-1.68,14.72-4.4,4.16-2.72,7.57-6.53,10.24-11.44,2.03-3.52,3.6-7.76,4.72-12.72,1.12-4.96,1.65-10,1.6-15.12-.05-5.12-.75-10-2.08-14.64-1.33-4.64-3.5-8.45-6.48-11.44-2.77-2.77-5.84-4.58-9.2-5.44-3.36-.85-6.86-.37-10.48,1.44-2.03,1.17-3.87,2.59-5.52,4.24s-3.23,3.55-4.72,5.68c-2.67,3.95-4.85,8.38-6.56,13.28-1.71,4.91-2.99,9.87-3.84,14.88l-.96,6.88c-.32,3.42-.48,6.94-.48,10.56h-.16v14.24Z"/>
      <path class="cls-1" d="M116.96,86.24c-1.39-5.23-1.71-10.4-.96-15.52.75-5.12,2.37-9.84,4.88-14.16,2.51-4.32,5.79-8.08,9.84-11.28,4.05-3.2,8.69-5.49,13.92-6.88,5.22-1.38,10.4-1.7,15.52-.96,5.12.75,9.87,2.38,14.24,4.88,4.37,2.51,8.16,5.79,11.36,9.84,3.2,4.05,5.49,8.69,6.88,13.92,1.38,5.23,1.71,10.4.96,15.52-.75,5.12-2.38,9.84-4.88,14.16-2.51,4.32-5.79,8.08-9.84,11.28-4.05,3.2-8.69,5.5-13.92,6.88-5.23,1.39-10.4,1.71-15.52.96s-9.87-2.37-14.24-4.88c-4.38-2.5-8.16-5.79-11.36-9.84-3.2-4.05-5.49-8.69-6.88-13.92ZM181.76,68.96c-1.07-3.84-2.72-7.76-4.96-11.76-2.24-4-4.96-7.52-8.16-10.56-3.2-3.04-6.83-5.28-10.88-6.72-4.06-1.44-8.32-1.57-12.8-.4-4.48,1.18-8.08,3.39-10.8,6.64-2.72,3.25-4.72,6.99-6,11.2-1.28,4.21-1.92,8.64-1.92,13.28s.53,8.88,1.6,12.72c1.07,3.84,2.72,7.79,4.96,11.84,2.24,4.06,4.96,7.58,8.16,10.56,3.2,2.99,6.83,5.23,10.88,6.72,4.05,1.5,8.32,1.6,12.8.32,4.48-1.17,8.1-3.38,10.88-6.64,2.77-3.25,4.8-6.99,6.08-11.2,1.28-4.21,1.89-8.64,1.84-13.28-.05-4.64-.62-8.88-1.68-12.72Z"/>
      <path class="cls-1" d="M270.08,115.52h-14.88v-41.28c-.75,4.8-1.66,9.17-2.72,13.12-1.07,3.95-2.29,7.47-3.68,10.56-1.07,2.24-2.29,4.43-3.68,6.56-1.39,2.14-3.02,4.08-4.88,5.84-1.87,1.76-3.89,3.17-6.08,4.24-2.19,1.07-4.62,1.6-7.28,1.6-4.38,0-7.92-.91-10.64-2.72-2.72-1.81-4.86-4.16-6.4-7.04-1.55-2.88-2.62-6.13-3.2-9.76-.59-3.62-.88-7.25-.88-10.88v-33.6c0-2.67-.16-4.8-.48-6.4-.32-1.6-.67-2.83-1.04-3.68-.38-.85-.78-1.44-1.2-1.76-.43-.32-.75-.48-.96-.48v-1.44h14.88v47.36c0,1.92.1,4.24.32,6.96.21,2.72.67,5.39,1.36,8,.69,2.62,1.71,4.99,3.04,7.12,1.33,2.13,3.12,3.58,5.36,4.32,2.24.75,4.42.75,6.56,0,2.13-.75,4.08-1.92,5.84-3.52,1.76-1.6,3.33-3.41,4.72-5.44,1.38-2.02,2.51-3.94,3.36-5.76,2.34-5.12,4.21-11.38,5.6-18.8,1.38-7.41,2.08-16.24,2.08-26.48,0-2.67-.16-4.8-.48-6.4s-.67-2.83-1.04-3.68c-.38-.85-.77-1.44-1.2-1.76-.43-.32-.75-.48-.96-.48v-1.44h14.88v63.36c0,2.67.13,4.8.4,6.4.27,1.6.61,2.85,1.04,3.76.43.91.85,1.5,1.28,1.76.42.27.74.4.96.4v1.44Z"/>
      <path class="cls-1" d="M296.63,115.52h-18.56v-1.44c.21,0,.53-.13.96-.4.42-.26.83-.85,1.2-1.76.37-.91.72-2.16,1.04-3.76.32-1.6.48-3.73.48-6.4V13.76c-.43-2.77-.99-4.58-1.68-5.44-.7-.85-1.25-1.28-1.68-1.28l-.48-1.44,15.04-5.6v101.76c0,2.67.13,4.8.4,6.4.26,1.6.61,2.85,1.04,3.76.42.91.85,1.5,1.28,1.76.42.27.75.4.96.4v1.44Z"/>
      <path class="cls-1" d="M372.63,115.52h-14.88v-41.28c-.75,4.8-1.66,9.17-2.72,13.12-1.07,3.95-2.29,7.47-3.68,10.56-1.07,2.24-2.29,4.43-3.68,6.56-1.39,2.14-3.01,4.08-4.88,5.84-1.87,1.76-3.9,3.17-6.08,4.24-2.19,1.07-4.62,1.6-7.28,1.6-4.38,0-7.92-.91-10.64-2.72-2.72-1.81-4.86-4.16-6.4-7.04-1.55-2.88-2.62-6.13-3.2-9.76-.59-3.62-.88-7.25-.88-10.88v-33.6c0-2.67-.16-4.8-.48-6.4-.32-1.6-.67-2.83-1.04-3.68-.38-.85-.78-1.44-1.2-1.76-.43-.32-.75-.48-.96-.48v-1.44h14.88v47.36c0,1.92.11,4.24.32,6.96.21,2.72.67,5.39,1.36,8,.69,2.62,1.71,4.99,3.04,7.12,1.33,2.13,3.12,3.58,5.36,4.32,2.24.75,4.42.75,6.56,0,2.13-.75,4.08-1.92,5.84-3.52,1.76-1.6,3.33-3.41,4.72-5.44,1.38-2.02,2.5-3.94,3.36-5.76,2.34-5.12,4.21-11.38,5.6-18.8,1.38-7.41,2.08-16.24,2.08-26.48,0-2.67-.16-4.8-.48-6.4-.32-1.6-.67-2.83-1.04-3.68-.38-.85-.77-1.44-1.2-1.76-.43-.32-.75-.48-.96-.48v-1.44h14.88v63.36c0,2.67.13,4.8.4,6.4.27,1.6.61,2.85,1.04,3.76.42.91.85,1.5,1.28,1.76.42.27.75.4.96.4v1.44Z"/>
      <path class="cls-1" d="M416.95,3.2h14.88l.16,16.96c1.81-5.33,5.09-9.54,9.84-12.64,4.75-3.09,10.16-4.96,16.24-5.6,6.08-.64,12.4.03,18.96,2,6.56,1.97,12.58,5.31,18.08,10,5.49,4.7,10,10.8,13.52,18.32,3.52,7.52,5.28,16.56,5.28,27.12s-1.68,19.2-5.04,26.56c-3.36,7.36-8.03,13.36-14,18-5.97,4.64-13.01,8.03-21.12,10.16-8.11,2.13-16.91,3.2-26.4,3.2-4.7,0-9.5-.27-14.4-.8-4.91-.53-9.76-.85-14.56-.96h-1.44v-1.44c.21,0,.53-.16.96-.48.42-.32.83-.9,1.2-1.76.37-.85.72-2.11,1.04-3.76.32-1.65.48-3.76.48-6.32V16.96c0-2.67-.16-4.8-.48-6.4-.32-1.6-.67-2.83-1.04-3.68-.38-.85-.78-1.44-1.2-1.76-.43-.32-.75-.48-.96-.48v-1.44ZM502.71,59.36c0-10.98-1.74-20.26-5.21-27.84-3.48-7.57-7.86-13.52-13.15-17.84-5.29-4.32-10.98-7.12-17.08-8.4-6.09-1.28-11.79-1.2-17.08.24-5.29,1.44-9.67,4.16-13.15,8.16-3.47,4-5.21,9.15-5.21,15.44v85.76c2.67.21,5.29.43,7.86.64,2.57.21,5.08.32,7.54.32,8.76,0,16.57-1.3,23.41-3.92,6.84-2.61,12.64-6.35,17.4-11.2,4.76-4.85,8.39-10.77,10.91-17.76,2.51-6.99,3.77-14.85,3.77-23.6Z"/>
      <path class="cls-1" d="M524.15,87.2c-1.39-5.22-1.71-10.4-.96-15.52.74-5.12,2.37-9.84,4.88-14.16,2.5-4.32,5.78-8.08,9.84-11.28,4.05-3.2,8.69-5.49,13.92-6.88,5.54-1.49,10.88-1.84,16-1.04,5.12.8,9.76,2.38,13.92,4.72,4.16,2.35,7.73,5.33,10.72,8.96,2.99,3.63,5.12,7.57,6.4,11.84-3.84,0-7.98.16-12.4.48-4.43.32-8.46.91-12.08,1.76,2.99-.11,5.73.4,8.24,1.52,2.5,1.12,4.67,2.64,6.48,4.56,1.81,1.92,3.25,4.16,4.32,6.72,1.07,2.56,1.71,5.23,1.92,8,.43,5.76-.77,10.75-3.6,14.96-2.83,4.21-6.56,7.52-11.2,9.92-4.64,2.4-9.84,3.79-15.6,4.16-5.76.37-11.33-.4-16.72-2.32-5.39-1.92-10.27-5.04-14.64-9.36-4.38-4.32-7.52-10-9.44-17.04ZM586.55,63.04c-1.5-3.41-3.42-6.69-5.76-9.84-2.35-3.14-4.99-5.84-7.92-8.08-2.94-2.24-6.16-3.84-9.68-4.8-3.52-.96-7.2-.91-11.04.16-3.63.96-6.67,2.62-9.12,4.96-2.46,2.35-4.4,5.07-5.84,8.16-1.44,3.1-2.46,6.46-3.04,10.08-.59,3.63-.78,7.2-.56,10.72,1.81.86,3.95,1.39,6.4,1.6,2.98.21,6.26-.13,9.84-1.04,3.57-.91,7.22-2.42,10.96-4.56,4.48-2.56,8.96-4.37,13.44-5.44,4.48-1.07,8.59-1.71,12.32-1.92ZM533.59,75.68c.32,3.09.8,5.97,1.44,8.64,2.02,7.68,5.12,13.71,9.28,18.08,4.16,4.38,8.67,7.36,13.52,8.96,4.85,1.6,9.73,1.95,14.64,1.04,4.91-.9,9.17-2.75,12.8-5.52,3.62-2.77,6.27-6.32,7.92-10.64,1.65-4.32,1.68-9.15.08-14.48-.85-2.88-2.24-5.49-4.16-7.84-1.92-2.35-4.27-4.08-7.04-5.2-2.78-1.12-5.92-1.54-9.44-1.28-3.52.27-7.25,1.58-11.2,3.92-3.84,2.24-7.6,3.82-11.28,4.72-3.68.91-7.07,1.25-10.16,1.04-1.17-.11-2.29-.24-3.36-.4-1.07-.16-2.08-.5-3.04-1.04Z"/>
      <path class="cls-1" d="M662.23,67.2c0-2.24-.62-4.66-1.84-7.28-1.23-2.61-2.91-5.17-5.04-7.68-2.14-2.51-4.56-4.75-7.28-6.72-2.72-1.97-5.55-3.41-8.48-4.32-2.93-.9-5.87-1.12-8.8-.64-2.93.48-5.58,1.95-7.92,4.4-2.24,2.24-3.31,4.88-3.2,7.92.11,3.04,1.38,5.79,3.84,8.24,1.81,1.81,4.5,3.63,8.08,5.44,3.57,1.82,8.29,3.47,14.16,4.96,4.37,1.18,8.05,2.56,11.04,4.16,2.99,1.6,5.44,3.31,7.36,5.12,3.09,3.09,4.9,6.56,5.44,10.4.53,3.84-.27,7.68-2.4,11.52-1.07,1.82-2.32,3.5-3.76,5.04-1.44,1.55-3.01,2.8-4.72,3.76-1.71,1.18-3.6,2.16-5.68,2.96s-4.24,1.44-6.48,1.92c-2.24.48-4.48.8-6.72.96s-4.38.19-6.4.08c-3.84-.32-7.87-1.15-12.08-2.48-4.22-1.33-8.62-3.39-13.2-6.16l-1.28-.8,3.84-17.76,1.28.32c-.21.96,0,2.19.64,3.68.64,1.49,1.44,3.04,2.4,4.64.96,1.6,1.97,3.07,3.04,4.4,1.06,1.34,1.97,2.32,2.72,2.96,2.13,2.13,4.48,3.81,7.04,5.04,2.56,1.23,5.22,2.11,8,2.64,2.67.54,5.3.75,7.92.64,2.61-.1,5.09-.48,7.44-1.12,1.28-.32,2.45-.72,3.52-1.2,1.07-.48,2.19-1.04,3.36-1.68,1.06-.75,2.02-1.54,2.88-2.4.75-.85,1.41-1.76,2-2.72.58-.96.99-1.97,1.2-3.04.21-1.7.1-3.25-.32-4.64-.75-2.03-2-3.76-3.76-5.2-1.76-1.44-3.82-2.67-6.16-3.68-2.35-1.01-4.88-1.89-7.6-2.64-2.72-.75-5.42-1.54-8.08-2.4-5.12-1.49-9.63-3.62-13.52-6.4-3.89-2.77-6.72-5.94-8.48-9.52-1.76-3.57-2.29-7.38-1.6-11.44.69-4.05,3.12-8.16,7.28-12.32,2.77-2.88,6.42-4.67,10.96-5.36,4.53-.69,9.12-.69,13.76,0,4.64.7,8.85,1.97,12.64,3.84,3.78,1.87,6.37,3.98,7.76,6.32l-4,18.24h-.8Z"/>
      <path class="cls-1" d="M677.91,44.16l15.2-5.76v63.36c0,2.67.13,4.8.4,6.4.27,1.6.61,2.85,1.04,3.76.43.91.85,1.5,1.28,1.76.42.27.75.4.96.4v1.44h-18.72v-1.44c.32,0,.69-.13,1.12-.4.42-.26.83-.85,1.2-1.76.37-.91.72-2.16,1.04-3.76.32-1.6.48-3.73.48-6.4v-49.44c-.43-2.88-1.01-4.75-1.76-5.6-.75-.85-1.33-1.28-1.76-1.28l-.48-1.28ZM686.31,25.44c-2.16,0-3.96-.72-5.42-2.16-1.46-1.44-2.18-3.22-2.18-5.36s.73-3.92,2.18-5.36c1.46-1.44,3.26-2.16,5.42-2.16s3.96.72,5.42,2.16c1.46,1.44,2.18,3.23,2.18,5.36s-.73,3.92-2.18,5.36c-1.46,1.44-3.26,2.16-5.42,2.16Z"/>
      <path class="cls-1" d="M706.06,86.24c-1.39-5.23-1.71-10.4-.96-15.52.74-5.12,2.37-9.87,4.88-14.24,2.5-4.37,5.78-8.16,9.84-11.36,4.05-3.2,8.69-5.49,13.92-6.88,5.33-1.49,10.53-1.84,15.6-1.04,5.07.8,9.79,2.43,14.16,4.88l5.28-1.44c4.8-1.28,8.48-2.53,11.04-3.76,2.56-1.23,4.4-2.34,5.52-3.36,1.12-1.01,1.73-1.84,1.84-2.48.11-.64.16-1.01.16-1.12v-.16l1.44-.32,1.44,5.92.32,1.44,1.44,5.92-1.44.32c-.75-.96-1.92-1.65-3.52-2.08-1.39-.42-3.28-.67-5.68-.72-2.4-.05-5.52.35-9.36,1.2l-6.72,1.6c3.95,2.56,7.36,5.79,10.24,9.68,2.88,3.9,5.01,8.29,6.4,13.2,1.38,5.01,1.73,10,1.04,14.96-.7,4.96-2.19,9.58-4.48,13.84-2.29,4.27-5.33,8.03-9.12,11.28-3.79,3.25-8.13,5.68-13.04,7.28-2.13.86-4.61,1.5-7.44,1.92-2.83.43-5.74.85-8.72,1.28-2.99.42-5.95.88-8.88,1.36-2.93.48-5.5,1.2-7.68,2.16-2.19.96-3.87,2.26-5.04,3.92-1.17,1.65-1.6,3.76-1.28,6.32.43,2.98,1.65,4.93,3.68,5.84,2.02.9,4.45,1.17,7.28.8,2.83-.38,5.89-1.2,9.2-2.48,3.31-1.28,6.48-2.69,9.52-4.24,3.04-1.55,5.79-3.04,8.24-4.48,2.45-1.44,4.16-2.48,5.12-3.12,3.41-2.13,6.85-4.08,10.32-5.84,3.46-1.76,6.58-2.8,9.36-3.12,3.62-.42,6.34.46,8.16,2.64,1.81,2.18,2.75,4.88,2.8,8.08.05,3.2-.8,6.4-2.56,9.6s-4.29,5.6-7.6,7.2c-2.56,1.17-5.28,1.76-8.16,1.76s-5.76-.43-8.64-1.28c-2.88-.85-5.66-2.05-8.32-3.6-2.67-1.55-4.96-3.28-6.88-5.2l.8-.8c5.01,3.95,9.71,6.67,14.08,8.16,4.37,1.49,8.1,1.33,11.2-.48,1.6-.96,3.01-2.4,4.24-4.32,1.22-1.92,2.13-3.97,2.72-6.16.58-2.19.72-4.24.4-6.16-.32-1.92-1.25-3.31-2.8-4.16-1.55-.86-3.81-1.01-6.8-.48-2.99.53-6.88,2.24-11.68,5.12-1.71,1.07-4.06,2.53-7.04,4.4-2.99,1.87-6.29,3.76-9.92,5.68-3.63,1.92-7.33,3.62-11.12,5.12-3.79,1.49-7.31,2.34-10.56,2.56-3.25.21-6.08-.38-8.48-1.76-2.4-1.39-3.98-4-4.72-7.84-.64-3.63.18-6.46,2.48-8.48,2.29-2.03,5.17-3.6,8.64-4.72,3.47-1.12,7.09-1.87,10.88-2.24,3.78-.38,6.96-.72,9.52-1.04-4.05-.32-7.92-1.25-11.6-2.8-3.68-1.54-7.04-3.57-10.08-6.08-3.04-2.51-5.68-5.47-7.92-8.88-2.24-3.41-3.9-7.14-4.96-11.2ZM771.02,68.8c-1.07-3.84-2.75-7.79-5.04-11.84-2.29-4.05-5.04-7.57-8.24-10.56-3.2-2.98-6.83-5.22-10.88-6.72-4.06-1.49-8.32-1.6-12.8-.32-4.48,1.18-8.11,3.42-10.88,6.72-2.77,3.31-4.8,7.07-6.08,11.28-1.28,4.21-1.9,8.64-1.84,13.28.05,4.64.61,8.88,1.68,12.72,1.06,3.84,2.72,7.79,4.96,11.84,2.24,4.06,4.96,7.58,8.16,10.56,3.2,2.99,6.82,5.23,10.88,6.72,4.05,1.5,8.32,1.6,12.8.32,4.48-1.17,8.1-3.41,10.88-6.72,2.77-3.31,4.8-7.07,6.08-11.28,1.28-4.21,1.92-8.64,1.92-13.28s-.54-8.88-1.6-12.72Z"/>
      <path class="cls-1" d="M799.98,38.4h14.88l-.16,41.44c.64-4.91,1.52-9.33,2.64-13.28,1.12-3.94,2.37-7.46,3.76-10.56,1.06-2.24,2.29-4.43,3.68-6.56,1.38-2.13,3.01-4.08,4.88-5.84,1.87-1.76,3.89-3.17,6.08-4.24,2.19-1.06,4.61-1.6,7.28-1.6,4.37,0,7.92.91,10.64,2.72,2.72,1.82,4.85,4.16,6.4,7.04,1.54,2.88,2.61,6.13,3.2,9.76.58,3.63.88,7.26.88,10.88v33.6c0,2.67.13,4.8.4,6.4.27,1.6.61,2.85,1.04,3.76.43.91.85,1.5,1.28,1.76.42.27.75.4.96.4v1.44h-18.56v-1.44c.21,0,.53-.13.96-.4.42-.26.83-.85,1.2-1.76.37-.91.72-2.16,1.04-3.76.32-1.6.48-3.73.48-6.4v-33.6c0-1.92-.11-4.24-.32-6.96-.21-2.72-.66-5.38-1.35-8-.69-2.61-1.7-4.98-3.03-7.12-1.33-2.13-3.11-3.57-5.34-4.32-2.23-.75-4.41-.72-6.54.08s-4.06,2-5.82,3.6c-1.75,1.6-3.32,3.42-4.7,5.44-1.38,2.03-2.49,3.95-3.34,5.76-2.34,5.12-4.2,11.39-5.58,18.8-1.38,7.42-2.07,16.19-2.07,26.32,0,2.67.13,4.8.4,6.4.26,1.6.61,2.85,1.04,3.76.42.91.85,1.5,1.28,1.76.43.27.75.4.96.4v1.44h-18.56v-1.44c.21,0,.53-.13.96-.4.42-.26.83-.85,1.2-1.76.37-.91.72-2.16,1.04-3.76.32-1.6.48-3.73.48-6.4v-49.6c0-2.56-.16-4.67-.48-6.32-.32-1.65-.67-2.91-1.04-3.76-.38-.85-.78-1.44-1.2-1.76-.43-.32-.75-.48-.96-.48v-1.44Z"/>
    </g>
  </g>
</svg>