<?xml version="1.0" encoding="UTF-8"?>
<svg id="Layer_1" data-name="Layer 1" xmlns="http://www.w3.org/2000/svg" version="1.1" viewBox="0 0 512 512">
  <defs>
    <style>
      .cls-1 {
        fill: #8c6332;
        stroke-width: 0px;
      }
    </style>
  </defs>
  <path class="cls-1" d="M255.9,64c-105.7,0-191.9,86.2-191.9,192.1s86.2,191.9,191.9,191.9,16.8-.5,24.9-1.8c85.7-11,153.8-78.7,165.3-164.1,1.3-8.5,1.9-17.2,1.9-26,0-105.9-86.2-192.1-192.1-192.1ZM83.4,256.1c0-25,5.4-48.8,15-70.2l82.3,225.5c-57.6-28-97.3-87.1-97.3-155.3ZM278.3,427.3c-7.3.9-14.8,1.4-22.4,1.4-16.9,0-33.2-2.5-48.6-7.1l18.8-55h.1l32.7-95.5,53.1,145.4c.4.8.9,1.6,1.3,2.3-11.2,4-22.9,6.8-35,8.5ZM279.8,175.1c10.4-.5,19.7-1.6,19.7-1.6,9.4-1,8.2-14.8-1.1-14.2,0,0-28,2.2-46,2.2s-45.5-2.2-45.5-2.2c-9.2-.6-10.4,13.7-1,14.2,0,0,8.7,1.1,18.1,1.6l26.9,73.7-37.8,113.3-62.9-187c10.5-.5,19.8-1.6,19.8-1.6,9.2-1,8.2-14.8-1.1-14.2,0,0-27.9,2.2-46,2.2s-7.1-.1-11.1-.2c30.8-46.8,83.9-77.7,144.1-77.7s85.9,17.2,116.6,45.2c-.8,0-1.5-.1-2.3-.1-17,0-29,14.8-29,30.7s8.2,26.2,16.9,40.4c6.6,11.5,14.3,26.3,14.3,47.6s-4.4,33.4-13.1,55.7l-17.3,57.6-62.2-185.6ZM342.7,405.3l13.7-39.7,39-112.8c9.9-24.6,13.1-44.3,13.1-61.8s-.4-12.3-1.1-17.8c13.5,24.6,21.2,52.8,21.2,82.9s-.5,15.8-1.5,23.5c-7.4,53.7-39.5,99.6-84.4,125.7Z"/>
</svg>