<?xml version="1.0" encoding="UTF-8"?>
<svg id="_レイヤー_2" data-name="レイヤー 2" xmlns="http://www.w3.org/2000/svg" xmlns:xlink="http://www.w3.org/1999/xlink" viewBox="0 0 68 77.76">
  <defs>
    <style>
      .cls-1 {
        fill: url(#_名称未設定グラデーション_4);
        stroke-width: 0px;
      }
    </style>
    <linearGradient id="_名称未設定グラデーション_4" data-name="名称未設定グラデーション 4" x1="-202.08" y1="40.32" x2="665.74" y2="40.32" gradientTransform="translate(0 79.2) scale(1 -1)" gradientUnits="userSpaceOnUse">
      <stop offset="0" stop-color="#804e00"/>
      <stop offset=".06" stop-color="#855506"/>
      <stop offset=".15" stop-color="#946817"/>
      <stop offset=".25" stop-color="#ac8833"/>
      <stop offset=".33" stop-color="#c2a54c"/>
      <stop offset=".52" stop-color="#b0923f"/>
      <stop offset=".57" stop-color="#a17d2b"/>
      <stop offset=".65" stop-color="#8f6313"/>
      <stop offset=".72" stop-color="#835305"/>
      <stop offset=".77" stop-color="#804e00"/>
      <stop offset=".82" stop-color="#855506"/>
      <stop offset=".89" stop-color="#926818"/>
      <stop offset=".98" stop-color="#a98836"/>
      <stop offset="1" stop-color="#b0923f"/>
    </linearGradient>
  </defs>
  <g id="_レイヤー_2-2" data-name=" レイヤー 2">
    <g id="_レイヤー_1-2" data-name=" レイヤー 1-2">
      <path class="cls-1" d="M68,77.12h-14.88v-41.28c-.75,4.8-1.66,9.17-2.72,13.12-1.07,3.95-2.29,7.47-3.68,10.56-1.07,2.24-2.29,4.43-3.68,6.56-1.39,2.14-3.02,4.08-4.88,5.84-1.87,1.76-3.89,3.17-6.08,4.24s-4.62,1.6-7.28,1.6c-4.38,0-7.92-.91-10.64-2.72s-4.86-4.16-6.4-7.04c-1.55-2.88-2.62-6.13-3.2-9.76-.59-3.62-.88-7.25-.88-10.88V13.76c0-2.67-.16-4.8-.48-6.4-.32-1.6-.67-2.83-1.04-3.68-.38-.85-.78-1.44-1.2-1.76-.43-.32-.75-.48-.96-.48V0h14.88v47.36c0,1.92.1,4.24.32,6.96.21,2.72.67,5.39,1.36,8,.69,2.62,1.71,4.99,3.04,7.12,1.33,2.13,3.12,3.58,5.36,4.32,2.24.75,4.42.75,6.56,0,2.13-.75,4.08-1.92,5.84-3.52s3.33-3.41,4.72-5.44c1.38-2.02,2.51-3.94,3.36-5.76,2.34-5.12,4.21-11.38,5.6-18.8,1.38-7.41,2.08-16.24,2.08-26.48,0-2.67-.16-4.8-.48-6.4s-.67-2.83-1.04-3.68c-.38-.85-.77-1.44-1.2-1.76s-.75-.48-.96-.48V0h14.88v63.36c0,2.67.13,4.8.4,6.4s.61,2.85,1.04,3.76c.43.91.85,1.5,1.28,1.76.42.27.74.4.96.4v1.44h0Z"/>
    </g>
  </g>
</svg>