<?xml version="1.0" encoding="UTF-8"?>
<svg id="_レイヤー_2" data-name="レイヤー 2" xmlns="http://www.w3.org/2000/svg" xmlns:xlink="http://www.w3.org/1999/xlink" viewBox="0 0 62.88 79.22">
  <defs>
    <style>
      .cls-1 {
        fill: url(#_名称未設定グラデーション_9);
        stroke-width: 0px;
      }
    </style>
    <linearGradient id="_名称未設定グラデーション_9" data-name="名称未設定グラデーション 9" x1="-606.87" y1="39.82" x2="260.95" y2="39.82" gradientTransform="translate(0 79.43) scale(1 -1)" gradientUnits="userSpaceOnUse">
      <stop offset="0" stop-color="#804e00"/>
      <stop offset=".06" stop-color="#855506"/>
      <stop offset=".15" stop-color="#946817"/>
      <stop offset=".25" stop-color="#ac8833"/>
      <stop offset=".33" stop-color="#c2a54c"/>
      <stop offset=".52" stop-color="#b0923f"/>
      <stop offset=".57" stop-color="#a17d2b"/>
      <stop offset=".65" stop-color="#8f6313"/>
      <stop offset=".72" stop-color="#835305"/>
      <stop offset=".77" stop-color="#804e00"/>
      <stop offset=".82" stop-color="#855506"/>
      <stop offset=".89" stop-color="#926818"/>
      <stop offset=".98" stop-color="#a98836"/>
      <stop offset="1" stop-color="#b0923f"/>
    </linearGradient>
  </defs>
  <g id="_レイヤー_2-2" data-name=" レイヤー 2">
    <g id="_レイヤー_1-2" data-name=" レイヤー 1-2">
      <path class="cls-1" d="M55.36,28.92c0-2.24-.62-4.66-1.84-7.28-1.23-2.61-2.91-5.17-5.04-7.68-2.14-2.51-4.56-4.75-7.28-6.72-2.72-1.97-5.55-3.41-8.48-4.32-2.93-.9-5.87-1.12-8.8-.64s-5.58,1.95-7.92,4.4c-2.24,2.24-3.31,4.88-3.2,7.92.11,3.04,1.38,5.79,3.84,8.24,1.81,1.81,4.5,3.63,8.08,5.44,3.57,1.82,8.29,3.47,14.16,4.96,4.37,1.18,8.05,2.56,11.04,4.16s5.44,3.31,7.36,5.12c3.09,3.09,4.9,6.56,5.44,10.4.53,3.84-.27,7.68-2.4,11.52-1.07,1.82-2.32,3.5-3.76,5.04-1.44,1.55-3.01,2.8-4.72,3.76-1.71,1.18-3.6,2.16-5.68,2.96s-4.24,1.44-6.48,1.92c-2.24.48-4.48.8-6.72.96s-4.38.19-6.4.08c-3.84-.32-7.87-1.15-12.08-2.48-4.22-1.33-8.62-3.39-13.2-6.16l-1.28-.8,3.84-17.76,1.28.32c-.21.96,0,2.19.64,3.68s1.44,3.04,2.4,4.64,1.97,3.07,3.04,4.4c1.06,1.34,1.97,2.32,2.72,2.96,2.13,2.13,4.48,3.81,7.04,5.04s5.22,2.11,8,2.64c2.67.54,5.3.75,7.92.64,2.61-.1,5.09-.48,7.44-1.12,1.28-.32,2.45-.72,3.52-1.2,1.07-.48,2.19-1.04,3.36-1.68,1.06-.75,2.02-1.54,2.88-2.4.75-.85,1.41-1.76,2-2.72.58-.96.99-1.97,1.2-3.04.21-1.7.1-3.25-.32-4.64-.75-2.03-2-3.76-3.76-5.2-1.76-1.44-3.82-2.67-6.16-3.68-2.35-1.01-4.88-1.89-7.6-2.64s-5.42-1.54-8.08-2.4c-5.12-1.49-9.63-3.62-13.52-6.4-3.89-2.77-6.72-5.94-8.48-9.52-1.76-3.57-2.29-7.38-1.6-11.44.69-4.05,3.12-8.16,7.28-12.32,2.77-2.88,6.42-4.67,10.96-5.36,4.53-.69,9.12-.69,13.76,0,4.64.7,8.85,1.97,12.64,3.84,3.78,1.87,6.37,3.98,7.76,6.32l-4,18.24h-.8Z"/>
    </g>
  </g>
</svg>