<?xml version="1.0" encoding="UTF-8"?>
<svg id="_レイヤー_2" data-name="レイヤー 2" xmlns="http://www.w3.org/2000/svg" xmlns:xlink="http://www.w3.org/1999/xlink" viewBox="0 0 78.39 78.22">
  <defs>
    <style>
      .cls-1 {
        fill: url(#_名称未設定グラデーション_3);
        stroke-width: 0px;
      }
    </style>
    <linearGradient id="_名称未設定グラデーション_3" data-name="名称未設定グラデーション 3" x1="-115.61" y1="42.78" x2="752.21" y2="42.78" gradientTransform="translate(0 81.89) scale(1 -1)" gradientUnits="userSpaceOnUse">
      <stop offset="0" stop-color="#804e00"/>
      <stop offset=".06" stop-color="#855506"/>
      <stop offset=".15" stop-color="#946817"/>
      <stop offset=".25" stop-color="#ac8833"/>
      <stop offset=".33" stop-color="#c2a54c"/>
      <stop offset=".52" stop-color="#b0923f"/>
      <stop offset=".57" stop-color="#a17d2b"/>
      <stop offset=".65" stop-color="#8f6313"/>
      <stop offset=".72" stop-color="#835305"/>
      <stop offset=".77" stop-color="#804e00"/>
      <stop offset=".82" stop-color="#855506"/>
      <stop offset=".89" stop-color="#926818"/>
      <stop offset=".98" stop-color="#a98836"/>
      <stop offset="1" stop-color="#b0923f"/>
    </linearGradient>
  </defs>
  <g id="_レイヤー_2-2" data-name=" レイヤー 2">
    <g id="_レイヤー_1-2" data-name=" レイヤー 1-2">
      <path class="cls-1" d="M1.35,49.19C-.04,43.96-.36,38.79.39,33.67c.75-5.12,2.37-9.84,4.88-14.16,2.51-4.32,5.79-8.08,9.84-11.28S23.8,2.74,29.03,1.35C34.25-.03,39.43-.35,44.55.39c5.12.75,9.87,2.38,14.24,4.88,4.37,2.51,8.16,5.79,11.36,9.84s5.49,8.69,6.88,13.92c1.38,5.23,1.71,10.4.96,15.52s-2.38,9.84-4.88,14.16c-2.51,4.32-5.79,8.08-9.84,11.28s-8.69,5.5-13.92,6.88c-5.23,1.39-10.4,1.71-15.52.96s-9.87-2.37-14.24-4.88c-4.38-2.5-8.16-5.79-11.36-9.84s-5.49-8.69-6.88-13.92h0ZM66.15,31.91c-1.07-3.84-2.72-7.76-4.96-11.76s-4.96-7.52-8.16-10.56-6.83-5.28-10.88-6.72c-4.06-1.44-8.32-1.57-12.8-.4-4.48,1.18-8.08,3.39-10.8,6.64s-4.72,6.99-6,11.2-1.92,8.64-1.92,13.28.53,8.88,1.6,12.72c1.07,3.84,2.72,7.79,4.96,11.84,2.24,4.06,4.96,7.58,8.16,10.56,3.2,2.99,6.83,5.23,10.88,6.72,4.05,1.5,8.32,1.6,12.8.32,4.48-1.17,8.1-3.38,10.88-6.64,2.77-3.25,4.8-6.99,6.08-11.2s1.89-8.64,1.84-13.28-.62-8.88-1.68-12.72Z"/>
    </g>
  </g>
</svg>