<?xml version="1.0" encoding="UTF-8"?>
<svg id="_レイヤー_2" data-name="レイヤー 2" xmlns="http://www.w3.org/2000/svg" xmlns:xlink="http://www.w3.org/1999/xlink" viewBox="0 0 18.88 105.12">
  <defs>
    <style>
      .cls-1 {
        fill: url(#_名称未設定グラデーション_10);
        stroke-width: 0px;
      }
    </style>
    <linearGradient id="_名称未設定グラデーション_10" data-name="名称未設定グラデーション 10" x1="-677.91" y1="82.64" x2="189.91" y2="82.64" gradientTransform="translate(0 135.2) scale(1 -1)" gradientUnits="userSpaceOnUse">
      <stop offset="0" stop-color="#804e00"/>
      <stop offset=".06" stop-color="#855506"/>
      <stop offset=".15" stop-color="#946817"/>
      <stop offset=".25" stop-color="#ac8833"/>
      <stop offset=".33" stop-color="#c2a54c"/>
      <stop offset=".52" stop-color="#b0923f"/>
      <stop offset=".57" stop-color="#a17d2b"/>
      <stop offset=".65" stop-color="#8f6313"/>
      <stop offset=".72" stop-color="#835305"/>
      <stop offset=".77" stop-color="#804e00"/>
      <stop offset=".82" stop-color="#855506"/>
      <stop offset=".89" stop-color="#926818"/>
      <stop offset=".98" stop-color="#a98836"/>
      <stop offset="1" stop-color="#b0923f"/>
    </linearGradient>
  </defs>
  <g id="_レイヤー_2-2" data-name=" レイヤー 2">
    <g id="_レイヤー_1-2" data-name=" レイヤー 1-2">
      <path class="cls-1" d="M0,33.76l15.2-5.76v63.36c0,2.67.13,4.8.4,6.4s.61,2.85,1.04,3.76.85,1.5,1.28,1.76c.42.27.75.4.96.4v1.44H.16v-1.44c.32,0,.69-.13,1.12-.4.42-.26.83-.85,1.2-1.76s.72-2.16,1.04-3.76.48-3.73.48-6.4v-49.44c-.43-2.88-1.01-4.75-1.76-5.6s-1.33-1.28-1.76-1.28L0,33.76h0ZM8.4,15.04c-2.16,0-3.96-.72-5.42-2.16-1.46-1.44-2.18-3.22-2.18-5.36s.73-3.92,2.18-5.36C4.44.72,6.24,0,8.4,0s3.96.72,5.42,2.16c1.46,1.44,2.18,3.23,2.18,5.36s-.73,3.92-2.18,5.36c-1.46,1.44-3.26,2.16-5.42,2.16Z"/>
    </g>
  </g>
</svg>