<?xml version="1.0" encoding="UTF-8"?>
<svg id="_レイヤー_2" data-name="レイヤー 2" xmlns="http://www.w3.org/2000/svg" xmlns:xlink="http://www.w3.org/1999/xlink" viewBox="0 0 87.27 113.44">
  <defs>
    <style>
      .cls-1 {
        fill: url(#_名称未設定グラデーション_11);
        stroke-width: 0px;
      }
    </style>
    <linearGradient id="_名称未設定グラデーション_11" data-name="名称未設定グラデーション 11" x1="-704.71" y1="40.4" x2="163.11" y2="40.4" gradientTransform="translate(0 97.12) scale(1 -1)" gradientUnits="userSpaceOnUse">
      <stop offset="0" stop-color="#804e00"/>
      <stop offset=".06" stop-color="#855506"/>
      <stop offset=".15" stop-color="#946817"/>
      <stop offset=".25" stop-color="#ac8833"/>
      <stop offset=".33" stop-color="#c2a54c"/>
      <stop offset=".52" stop-color="#b0923f"/>
      <stop offset=".57" stop-color="#a17d2b"/>
      <stop offset=".65" stop-color="#8f6313"/>
      <stop offset=".72" stop-color="#835305"/>
      <stop offset=".77" stop-color="#804e00"/>
      <stop offset=".82" stop-color="#855506"/>
      <stop offset=".89" stop-color="#926818"/>
      <stop offset=".98" stop-color="#a98836"/>
      <stop offset="1" stop-color="#b0923f"/>
    </linearGradient>
  </defs>
  <g id="_レイヤー_2-2" data-name=" レイヤー 2">
    <g id="_レイヤー_1-2" data-name=" レイヤー 1-2">
      <path class="cls-1" d="M1.35,56.8C-.04,51.57-.36,46.4.39,41.28c.74-5.12,2.37-9.87,4.88-14.24,2.5-4.37,5.78-8.16,9.84-11.36,4.05-3.2,8.69-5.49,13.92-6.88,5.33-1.49,10.53-1.84,15.6-1.04,5.07.8,9.79,2.43,14.16,4.88l5.28-1.44c4.8-1.28,8.48-2.53,11.04-3.76s4.4-2.34,5.52-3.36c1.12-1.01,1.73-1.84,1.84-2.48.11-.64.16-1.01.16-1.12v-.16l1.44-.32,1.44,5.92.32,1.44,1.44,5.92-1.44.32c-.75-.96-1.92-1.65-3.52-2.08-1.39-.42-3.28-.67-5.68-.72-2.4-.05-5.52.35-9.36,1.2l-6.72,1.6c3.95,2.56,7.36,5.79,10.24,9.68,2.88,3.9,5.01,8.29,6.4,13.2,1.38,5.01,1.73,10,1.04,14.96-.7,4.96-2.19,9.58-4.48,13.84-2.29,4.27-5.33,8.03-9.12,11.28s-8.13,5.68-13.04,7.28c-2.13.86-4.61,1.5-7.44,1.92-2.83.43-5.74.85-8.72,1.28-2.99.42-5.95.88-8.88,1.36s-5.5,1.2-7.68,2.16c-2.19.96-3.87,2.26-5.04,3.92-1.17,1.65-1.6,3.76-1.28,6.32.43,2.98,1.65,4.93,3.68,5.84,2.02.9,4.45,1.17,7.28.8,2.83-.38,5.89-1.2,9.2-2.48s6.48-2.69,9.52-4.24c3.04-1.55,5.79-3.04,8.24-4.48s4.16-2.48,5.12-3.12c3.41-2.13,6.85-4.08,10.32-5.84,3.46-1.76,6.58-2.8,9.36-3.12,3.62-.42,6.34.46,8.16,2.64,1.81,2.18,2.75,4.88,2.8,8.08.05,3.2-.8,6.4-2.56,9.6s-4.29,5.6-7.6,7.2c-2.56,1.17-5.28,1.76-8.16,1.76s-5.76-.43-8.64-1.28-5.66-2.05-8.32-3.6c-2.67-1.55-4.96-3.28-6.88-5.2l.8-.8c5.01,3.95,9.71,6.67,14.08,8.16s8.1,1.33,11.2-.48c1.6-.96,3.01-2.4,4.24-4.32,1.22-1.92,2.13-3.97,2.72-6.16.58-2.19.72-4.24.4-6.16-.32-1.92-1.25-3.31-2.8-4.16-1.55-.86-3.81-1.01-6.8-.48s-6.88,2.24-11.68,5.12c-1.71,1.07-4.06,2.53-7.04,4.4-2.99,1.87-6.29,3.76-9.92,5.68s-7.33,3.62-11.12,5.12c-3.79,1.49-7.31,2.34-10.56,2.56-3.25.21-6.08-.38-8.48-1.76-2.4-1.39-3.98-4-4.72-7.84-.64-3.63.18-6.46,2.48-8.48,2.29-2.03,5.17-3.6,8.64-4.72,3.47-1.12,7.09-1.87,10.88-2.24,3.78-.38,6.96-.72,9.52-1.04-4.05-.32-7.92-1.25-11.6-2.8-3.68-1.54-7.04-3.57-10.08-6.08-3.04-2.51-5.68-5.47-7.92-8.88-2.24-3.41-3.9-7.14-4.96-11.2h0ZM66.31,39.36c-1.07-3.84-2.75-7.79-5.04-11.84s-5.04-7.57-8.24-10.56c-3.2-2.98-6.83-5.22-10.88-6.72-4.06-1.49-8.32-1.6-12.8-.32-4.48,1.18-8.11,3.42-10.88,6.72-2.77,3.31-4.8,7.07-6.08,11.28s-1.9,8.64-1.84,13.28c.05,4.64.61,8.88,1.68,12.72,1.06,3.84,2.72,7.79,4.96,11.84,2.24,4.06,4.96,7.58,8.16,10.56,3.2,2.99,6.82,5.23,10.88,6.72,4.05,1.5,8.32,1.6,12.8.32,4.48-1.17,8.1-3.41,10.88-6.72,2.77-3.31,4.8-7.07,6.08-11.28s1.92-8.64,1.92-13.28-.54-8.88-1.6-12.72Z"/>
    </g>
  </g>
</svg>