<?xml version="1.0" encoding="UTF-8"?>
<svg id="_レイヤー_2" data-name="レイヤー 2" xmlns="http://www.w3.org/2000/svg" xmlns:xlink="http://www.w3.org/1999/xlink" viewBox="0 0 76.07 78.11">
  <defs>
    <style>
      .cls-1 {
        fill: url(#_名称未設定グラデーション_8);
        stroke-width: 0px;
      }
    </style>
    <linearGradient id="_名称未設定グラデーション_8" data-name="名称未設定グラデーション 8" x1="-522.8" y1="41.14" x2="345.02" y2="41.14" gradientTransform="translate(0 80.2) scale(1 -1)" gradientUnits="userSpaceOnUse">
      <stop offset="0" stop-color="#804e00"/>
      <stop offset=".06" stop-color="#855506"/>
      <stop offset=".15" stop-color="#946817"/>
      <stop offset=".25" stop-color="#ac8833"/>
      <stop offset=".33" stop-color="#c2a54c"/>
      <stop offset=".52" stop-color="#b0923f"/>
      <stop offset=".57" stop-color="#a17d2b"/>
      <stop offset=".65" stop-color="#8f6313"/>
      <stop offset=".72" stop-color="#835305"/>
      <stop offset=".77" stop-color="#804e00"/>
      <stop offset=".82" stop-color="#855506"/>
      <stop offset=".89" stop-color="#926818"/>
      <stop offset=".98" stop-color="#a98836"/>
      <stop offset="1" stop-color="#b0923f"/>
    </linearGradient>
  </defs>
  <g id="_レイヤー_2-2" data-name=" レイヤー 2">
    <g id="_レイヤー_1-2" data-name=" レイヤー 1-2">
      <path class="cls-1" d="M1.35,49.3C-.04,44.08-.36,38.9.39,33.78c.74-5.12,2.37-9.84,4.88-14.16,2.5-4.32,5.78-8.08,9.84-11.28,4.05-3.2,8.69-5.49,13.92-6.88C34.57-.03,39.91-.38,45.03.42s9.76,2.38,13.92,4.72c4.16,2.35,7.73,5.33,10.72,8.96,2.99,3.63,5.12,7.57,6.4,11.84-3.84,0-7.98.16-12.4.48-4.43.32-8.46.91-12.08,1.76,2.99-.11,5.73.4,8.24,1.52,2.5,1.12,4.67,2.64,6.48,4.56s3.25,4.16,4.32,6.72,1.71,5.23,1.92,8c.43,5.76-.77,10.75-3.6,14.96-2.83,4.21-6.56,7.52-11.2,9.92s-9.84,3.79-15.6,4.16c-5.76.37-11.33-.4-16.72-2.32-5.39-1.92-10.27-5.04-14.64-9.36-4.38-4.32-7.52-10-9.44-17.04h0ZM63.75,25.14c-1.5-3.41-3.42-6.69-5.76-9.84-2.35-3.14-4.99-5.84-7.92-8.08-2.94-2.24-6.16-3.84-9.68-4.8s-7.2-.91-11.04.16c-3.63.96-6.67,2.62-9.12,4.96-2.46,2.35-4.4,5.07-5.84,8.16-1.44,3.1-2.46,6.46-3.04,10.08-.59,3.63-.78,7.2-.56,10.72,1.81.86,3.95,1.39,6.4,1.6,2.98.21,6.26-.13,9.84-1.04,3.57-.91,7.22-2.42,10.96-4.56,4.48-2.56,8.96-4.37,13.44-5.44s8.59-1.71,12.32-1.92h0ZM10.79,37.78c.32,3.09.8,5.97,1.44,8.64,2.02,7.68,5.12,13.71,9.28,18.08,4.16,4.38,8.67,7.36,13.52,8.96,4.85,1.6,9.73,1.95,14.64,1.04,4.91-.9,9.17-2.75,12.8-5.52,3.62-2.77,6.27-6.32,7.92-10.64,1.65-4.32,1.68-9.15.08-14.48-.85-2.88-2.24-5.49-4.16-7.84s-4.27-4.08-7.04-5.2c-2.78-1.12-5.92-1.54-9.44-1.28-3.52.27-7.25,1.58-11.2,3.92-3.84,2.24-7.6,3.82-11.28,4.72-3.68.91-7.07,1.25-10.16,1.04-1.17-.11-2.29-.24-3.36-.4s-2.08-.5-3.04-1.04h0Z"/>
    </g>
  </g>
</svg>