<?xml version="1.0" encoding="UTF-8"?>
<svg id="_レイヤー_2" data-name="レイヤー 2" xmlns="http://www.w3.org/2000/svg" xmlns:xlink="http://www.w3.org/1999/xlink" viewBox="0 0 96.96 115.59">
  <defs>
    <style>
      .cls-1 {
        fill: url(#_名称未設定グラデーション_7);
        stroke-width: 0px;
      }
    </style>
    <linearGradient id="_名称未設定グラデーション_7" data-name="名称未設定グラデーション 7" x1="-416.95" y1="94.83" x2="450.87" y2="94.83" gradientTransform="translate(0 152.63) scale(1 -1)" gradientUnits="userSpaceOnUse">
      <stop offset="0" stop-color="#804e00"/>
      <stop offset=".06" stop-color="#855506"/>
      <stop offset=".15" stop-color="#946817"/>
      <stop offset=".25" stop-color="#ac8833"/>
      <stop offset=".33" stop-color="#c2a54c"/>
      <stop offset=".52" stop-color="#b0923f"/>
      <stop offset=".57" stop-color="#a17d2b"/>
      <stop offset=".65" stop-color="#8f6313"/>
      <stop offset=".72" stop-color="#835305"/>
      <stop offset=".77" stop-color="#804e00"/>
      <stop offset=".82" stop-color="#855506"/>
      <stop offset=".89" stop-color="#926818"/>
      <stop offset=".98" stop-color="#a98836"/>
      <stop offset="1" stop-color="#b0923f"/>
    </linearGradient>
  </defs>
  <g id="_レイヤー_2-2" data-name=" レイヤー 2">
    <g id="_レイヤー_1-2" data-name=" レイヤー 1-2">
      <path class="cls-1" d="M0,1.51h14.88l.16,16.96c1.81-5.33,5.09-9.54,9.84-12.64C29.63,2.74,35.04.87,41.12.23c6.08-.64,12.4.03,18.96,2,6.56,1.97,12.58,5.31,18.08,10,5.49,4.7,10,10.8,13.52,18.32,3.52,7.52,5.28,16.56,5.28,27.12s-1.68,19.2-5.04,26.56c-3.36,7.36-8.03,13.36-14,18s-13.01,8.03-21.12,10.16c-8.11,2.13-16.91,3.2-26.4,3.2-4.7,0-9.5-.27-14.4-.8-4.91-.53-9.76-.85-14.56-.96H0v-1.44c.21,0,.53-.16.96-.48.42-.32.83-.9,1.2-1.76.37-.85.72-2.11,1.04-3.76s.48-3.76.48-6.32V15.27c0-2.67-.16-4.8-.48-6.4-.32-1.6-.67-2.83-1.04-3.68-.38-.85-.78-1.44-1.2-1.76-.43-.32-.75-.48-.96-.48v-1.44h0ZM85.76,57.67c0-10.98-1.74-20.26-5.21-27.84-3.48-7.57-7.86-13.52-13.15-17.84s-10.98-7.12-17.08-8.4c-6.09-1.28-11.79-1.2-17.08.24-5.29,1.44-9.67,4.16-13.15,8.16-3.47,4-5.21,9.15-5.21,15.44v85.76c2.67.21,5.29.43,7.86.64,2.57.21,5.08.32,7.54.32,8.76,0,16.57-1.3,23.41-3.92,6.84-2.61,12.64-6.35,17.4-11.2,4.76-4.85,8.39-10.77,10.91-17.76,2.51-6.99,3.77-14.85,3.77-23.6h-.01Z"/>
    </g>
  </g>
</svg>