<?xml version="1.0" encoding="UTF-8"?>
<svg id="_レイヤー_2" data-name="レイヤー 2" xmlns="http://www.w3.org/2000/svg" xmlns:xlink="http://www.w3.org/1999/xlink" viewBox="0 0 79.84 117.08">
  <defs>
    <style>
      .cls-1 {
        fill: url(#_名称未設定グラデーション_2);
        stroke-width: 0px;
      }
    </style>
    <linearGradient id="_名称未設定グラデーション_2" data-name="名称未設定グラデーション 2" x1="-27.68" y1="23.14" x2="840.14" y2="23.14" gradientTransform="translate(0 81.68) scale(1 -1)" gradientUnits="userSpaceOnUse">
      <stop offset="0" stop-color="#804e00"/>
      <stop offset=".06" stop-color="#855506"/>
      <stop offset=".15" stop-color="#946817"/>
      <stop offset=".25" stop-color="#ac8833"/>
      <stop offset=".33" stop-color="#c2a54c"/>
      <stop offset=".52" stop-color="#b0923f"/>
      <stop offset=".57" stop-color="#a17d2b"/>
      <stop offset=".65" stop-color="#8f6313"/>
      <stop offset=".72" stop-color="#835305"/>
      <stop offset=".77" stop-color="#804e00"/>
      <stop offset=".82" stop-color="#855506"/>
      <stop offset=".89" stop-color="#926818"/>
      <stop offset=".98" stop-color="#a98836"/>
      <stop offset="1" stop-color="#b0923f"/>
    </linearGradient>
  </defs>
  <g id="_レイヤー_2-2" data-name=" レイヤー 2">
    <g id="_レイヤー_1-2" data-name=" レイヤー 1-2">
      <path class="cls-1" d="M14.88,44.44c.75-5.33,1.81-10.18,3.2-14.56,1.38-4.37,3.04-8.32,4.96-11.84,3.2-6.18,7.04-10.66,11.52-13.44.42-.32,1.06-.69,1.92-1.12,2.77-1.71,5.71-2.77,8.8-3.2,3.09-.42,6.24-.37,9.44.16,5.54.96,10.1,2.78,13.68,5.44,3.57,2.67,6.29,5.89,8.16,9.68,1.86,3.79,2.93,7.9,3.2,12.32.27,4.43-.11,8.91-1.12,13.44-1.02,4.54-2.67,8.94-4.96,13.2-2.3,4.27-5.04,8.05-8.24,11.36-3.95,4.05-8.56,7.33-13.84,9.84-5.28,2.51-11.18,3.76-17.68,3.76-2.77,0-5.73-.29-8.88-.88-3.15-.58-6.54-1.62-10.16-3.12v27.68c.43,2.77,1.01,4.58,1.76,5.44.74.85,1.28,1.28,1.6,1.28l.64,1.44-15.2,5.76V15.16c0-2.67-.16-4.8-.48-6.4s-.67-2.83-1.04-3.68c-.38-.85-.78-1.44-1.2-1.76-.43-.32-.75-.48-.96-.48v-1.44h14.88s0,43.04,0,43.04ZM14.88,74.2c6.72,2.67,13.12,4,19.2,4,5.65-.21,10.56-1.68,14.72-4.4,4.16-2.72,7.57-6.53,10.24-11.44,2.03-3.52,3.6-7.76,4.72-12.72s1.65-10,1.6-15.12-.75-10-2.08-14.64-3.5-8.45-6.48-11.44c-2.77-2.77-5.84-4.58-9.2-5.44-3.36-.85-6.86-.37-10.48,1.44-2.03,1.17-3.87,2.59-5.52,4.24s-3.23,3.55-4.72,5.68c-2.67,3.95-4.85,8.38-6.56,13.28-1.71,4.91-2.99,9.87-3.84,14.88l-.96,6.88c-.32,3.42-.48,6.94-.48,10.56h-.16v14.24h0Z"/>
    </g>
  </g>
</svg>